<?xml version="1.0" encoding="UTF-8" standalone="no"?>
<svg width="159.015mm" height="317.765mm"
 xmlns="http://www.w3.org/2000/svg" xmlns:xlink="http://www.w3.org/1999/xlink"  version="1.2" baseProfile="tiny">
<title>treemap_by_class_and_order</title>
<desc>Rendered by Tableau</desc>
<defs>
</defs>
<g fill="none" stroke="black" stroke-width="1" fill-rule="evenodd" stroke-linecap="square" stroke-linejoin="bevel" >

<g >
<g fill="#ffffff" fill-opacity="1" stroke="none" transform="matrix(1,0,0,1,0,0)"
font-family="Benton Sans Book" font-size="13.3333" font-weight="400" font-style="normal" 
>
<rect x="0" y="0" width="601" height="1201"/>
</g>
</g>

<g >
<g fill="#ffffff" fill-opacity="1" stroke="none" transform="matrix(1,0,0,1,12,12)"
font-family="Benton Sans Book" font-size="13.3333" font-weight="400" font-style="normal" 
>
<rect x="0" y="0" width="576" height="1129"/>
</g>
</g>

<clipPath id ="clip1" >
<rect x="0" y="0" height="1130" width="577" transform="matrix(1,0,0,1,12,12)" />
</clipPath>
<g  clip-path="url(#clip1)" 
>
<g fill="none" stroke="#000000" stroke-opacity="1" stroke-width="1" stroke-linecap="square" stroke-linejoin="bevel" transform="matrix(1,0,0,1,12,12)"
font-family="Benton Sans Book" font-size="13.3333" font-weight="400" font-style="normal" 
>
</g>
</g>

<clipPath id ="clip2" >
<rect x="0" y="0" height="1130" width="577" transform="matrix(1,0,0,1,12,12)" />
</clipPath>
<g  clip-path="url(#clip2)" 
>
<g fill="none" stroke="#000000" stroke-opacity="1" stroke-width="1" stroke-linecap="square" stroke-linejoin="bevel" transform="matrix(1,0,0,1,12,12)"
font-family="Benton Sans Book" font-size="13.3333" font-weight="400" font-style="normal" 
>
</g>
</g>

<g  clip-path="url(#clip2)" 
>
<g fill="#ffffff" fill-opacity="1" stroke="none" transform="matrix(1,0,0,1,12,12)"
font-family="Benton Sans Book" font-size="13.3333" font-weight="400" font-style="normal" 
>
<rect x="0" y="0" width="577" height="1130"/>
</g>
</g>

<g  clip-path="url(#clip2)" 
>
<g fill="#ffffff" fill-opacity="1" stroke="none" transform="matrix(1,0,0,1,12,12)"
font-family="Benton Sans Book" font-size="13.3333" font-weight="400" font-style="normal" 
>
<rect x="0" y="0" width="577" height="1130"/>
</g>
</g>

<clipPath id ="clip3" >
<rect x="0" y="0" height="1129" width="576" transform="matrix(1,0,0,1,12,12)" />
</clipPath>
<g  clip-path="url(#clip3)" 
>
<g fill="none" stroke="#000000" stroke-opacity="1" stroke-width="1" stroke-linecap="square" stroke-linejoin="bevel" transform="matrix(1,0,0,1,12,12)"
font-family="Benton Sans Book" font-size="13.3333" font-weight="400" font-style="normal" 
>
</g>
</g>

<g  clip-path="url(#clip3)" 
>
<g fill="#ffffff" fill-opacity="1" stroke="none" transform="matrix(1,0,0,1,12,12)"
font-family="Benton Sans Book" font-size="13.3333" font-weight="400" font-style="normal" 
>
<rect x="0" y="0" width="577" height="1130"/>
</g>
</g>

<clipPath id ="clip4" >
<rect x="0" y="0" height="1130" width="577" transform="matrix(1,0,0,1,12,12)" />
</clipPath>
<g  clip-path="url(#clip4)" 
>
<g fill="none" stroke="#000000" stroke-opacity="1" stroke-width="1" stroke-linecap="square" stroke-linejoin="bevel" transform="matrix(1,0,0,1,12,12)"
font-family="Benton Sans Book" font-size="13.3333" font-weight="400" font-style="normal" 
>
</g>
</g>

<clipPath id ="clip5" >
<rect x="0" y="0" height="1130" width="577" transform="matrix(1,0,0,1,12,12)" />
</clipPath>
<g  clip-path="url(#clip5)" 
>
<g fill="none" stroke="#000000" stroke-opacity="1" stroke-width="1" stroke-linecap="square" stroke-linejoin="bevel" transform="matrix(1,0,0,1,12,12)"
font-family="Benton Sans Book" font-size="13.3333" font-weight="400" font-style="normal" 
>
</g>
</g>

<clipPath id ="clip6" >
<rect x="0" y="0" height="1130" width="577" transform="matrix(1,0,0,1,12,12)" />
</clipPath>
<g  clip-path="url(#clip6)" 
>
<g fill="none" stroke="#000000" stroke-opacity="1" stroke-width="1" stroke-linecap="square" stroke-linejoin="bevel" transform="matrix(1,0,0,1,12,12)"
font-family="Benton Sans Book" font-size="13.3333" font-weight="400" font-style="normal" 
>
</g>
</g>

<clipPath id ="clip7" >
<rect x="0" y="0" height="1130" width="577" transform="matrix(1,0,0,1,12,12)" />
</clipPath>
<g  clip-path="url(#clip7)" 
>
<g fill="none" stroke="#000000" stroke-opacity="1" stroke-width="1" stroke-linecap="square" stroke-linejoin="bevel" transform="matrix(1,0,0,1,12,12)"
font-family="Benton Sans Book" font-size="13.3333" font-weight="400" font-style="normal" 
>
</g>
</g>

<g  clip-path="url(#clip7)" 
>
<g fill="#ffffff" fill-opacity="1" stroke="none" transform="matrix(1,0,0,1,12,12)"
font-family="Benton Sans Book" font-size="13.3333" font-weight="400" font-style="normal" 
>
<rect x="0" y="0" width="577" height="1130"/>
</g>
</g>

<clipPath id ="clip8" >
<rect x="0" y="0" height="1130" width="577" transform="matrix(1,0,0,1,12,12)" />
</clipPath>
<g  clip-path="url(#clip8)" 
>
<g fill="none" stroke="#000000" stroke-opacity="1" stroke-width="1" stroke-linecap="square" stroke-linejoin="bevel" transform="matrix(1,0,0,1,12,12)"
font-family="Benton Sans Book" font-size="13.3333" font-weight="400" font-style="normal" 
>
</g>
</g>

<clipPath id ="clip9" >
<rect x="0" y="0" height="1129" width="576" transform="matrix(1,0,0,1,12,12)" />
</clipPath>
<g  clip-path="url(#clip9)" 
>
<g fill="none" stroke="#000000" stroke-opacity="1" stroke-width="1" stroke-linecap="square" stroke-linejoin="bevel" transform="matrix(1,0,0,1,12,12)"
font-family="Benton Sans Book" font-size="13.3333" font-weight="400" font-style="normal" 
>
</g>
</g>

<clipPath id ="clip10" >
<rect x="0" y="0" height="1130" width="577" transform="matrix(1,0,0,1,12,12)" />
</clipPath>
<g  clip-path="url(#clip10)" 
>
<g fill="none" stroke="#000000" stroke-opacity="1" stroke-width="1" stroke-linecap="square" stroke-linejoin="bevel" transform="matrix(1,0,0,1,12,12)"
font-family="Benton Sans Book" font-size="13.3333" font-weight="400" font-style="normal" 
>
</g>
</g>

<clipPath id ="clip11" >
<rect x="0" y="0" height="1129" width="576" transform="matrix(1,0,0,1,12,12)" />
</clipPath>
<g  clip-path="url(#clip11)" 
>
<g fill="none" stroke="#000000" stroke-opacity="1" stroke-width="1" stroke-linecap="square" stroke-linejoin="bevel" transform="matrix(1,0,0,1,12,12)"
font-family="Benton Sans Book" font-size="13.3333" font-weight="400" font-style="normal" 
>
</g>
</g>

<clipPath id ="clip12" >
<rect x="0" y="0" height="1130" width="577" transform="matrix(1,0,0,1,12,12)" />
</clipPath>
<g  clip-path="url(#clip12)" 
>
<g fill="none" stroke="#000000" stroke-opacity="1" stroke-width="1" stroke-linecap="square" stroke-linejoin="bevel" transform="matrix(1,0,0,1,12,12)"
font-family="Benton Sans Book" font-size="13.3333" font-weight="400" font-style="normal" 
>
</g>
</g>

<clipPath id ="clip13" >
<rect x="0" y="0" height="1130" width="577" transform="matrix(1,0,0,1,12,12)" />
</clipPath>
<g  clip-path="url(#clip13)" 
>
<g fill="none" stroke="#000000" stroke-opacity="1" stroke-width="1" stroke-linecap="square" stroke-linejoin="bevel" transform="matrix(1,0,0,1,12,12)"
font-family="Benton Sans Book" font-size="13.3333" font-weight="400" font-style="normal" 
>
</g>
</g>

<clipPath id ="clip14" >
<rect x="0" y="0" height="1129" width="576" transform="matrix(1,0,0,1,12,12)" />
</clipPath>
<g  clip-path="url(#clip14)" 
>
<g fill="none" stroke="#000000" stroke-opacity="1" stroke-width="1" stroke-linecap="square" stroke-linejoin="bevel" transform="matrix(1,0,0,1,12,12)"
font-family="Benton Sans Book" font-size="13.3333" font-weight="400" font-style="normal" 
>
</g>
</g>

<g  clip-path="url(#clip14)" 
>
<g fill="#802f2d" fill-opacity="1" stroke="none" transform="matrix(1,0,0,1,12,12)"
font-family="Benton Sans Book" font-size="13.3333" font-weight="400" font-style="normal" 
>
<rect x="336" y="1111" width="3" height="12"/>
</g>
</g>

<g  clip-path="url(#clip14)" 
>
<g fill="none" stroke="#000000" stroke-opacity="1" stroke-width="1" stroke-linecap="butt" stroke-linejoin="miter" stroke-miterlimit="2" transform="matrix(1,0,0,1,12,12)"
font-family="Benton Sans Book" font-size="13.3333" font-weight="400" font-style="normal" 
>
<rect x="336" y="1111" width="3" height="12"/>
</g>
</g>

<g  clip-path="url(#clip14)" 
>
<g fill="#802f2d" fill-opacity="1" stroke="none" transform="matrix(1,0,0,1,12,12)"
font-family="Benton Sans Book" font-size="13.3333" font-weight="400" font-style="normal" 
>
<rect x="6" y="997" width="173" height="126"/>
</g>
</g>

<g  clip-path="url(#clip14)" 
>
<g fill="none" stroke="#000000" stroke-opacity="1" stroke-width="1" stroke-linecap="butt" stroke-linejoin="miter" stroke-miterlimit="2" transform="matrix(1,0,0,1,12,12)"
font-family="Benton Sans Book" font-size="13.3333" font-weight="400" font-style="normal" 
>
<rect x="6" y="997" width="173" height="126"/>
</g>
</g>

<g  clip-path="url(#clip14)" 
>
<g fill="#802f2d" fill-opacity="1" stroke="none" transform="matrix(1,0,0,1,12,12)"
font-family="Benton Sans Book" font-size="13.3333" font-weight="400" font-style="normal" 
>
<rect x="323" y="1111" width="13" height="12"/>
</g>
</g>

<g  clip-path="url(#clip14)" 
>
<g fill="none" stroke="#000000" stroke-opacity="1" stroke-width="1" stroke-linecap="butt" stroke-linejoin="miter" stroke-miterlimit="2" transform="matrix(1,0,0,1,12,12)"
font-family="Benton Sans Book" font-size="13.3333" font-weight="400" font-style="normal" 
>
<rect x="323" y="1111" width="13" height="12"/>
</g>
</g>

<g  clip-path="url(#clip14)" 
>
<g fill="#802f2d" fill-opacity="1" stroke="none" transform="matrix(1,0,0,1,12,12)"
font-family="Benton Sans Book" font-size="13.3333" font-weight="400" font-style="normal" 
>
<rect x="179" y="1080" width="144" height="43"/>
</g>
</g>

<g  clip-path="url(#clip14)" 
>
<g fill="none" stroke="#000000" stroke-opacity="1" stroke-width="1" stroke-linecap="butt" stroke-linejoin="miter" stroke-miterlimit="2" transform="matrix(1,0,0,1,12,12)"
font-family="Benton Sans Book" font-size="13.3333" font-weight="400" font-style="normal" 
>
<rect x="179" y="1080" width="144" height="43"/>
</g>
</g>

<g  clip-path="url(#clip14)" 
>
<g fill="#802f2d" fill-opacity="1" stroke="none" transform="matrix(1,0,0,1,12,12)"
font-family="Benton Sans Book" font-size="13.3333" font-weight="400" font-style="normal" 
>
<rect x="323" y="997" width="16" height="114"/>
</g>
</g>

<g  clip-path="url(#clip14)" 
>
<g fill="none" stroke="#000000" stroke-opacity="1" stroke-width="1" stroke-linecap="butt" stroke-linejoin="miter" stroke-miterlimit="2" transform="matrix(1,0,0,1,12,12)"
font-family="Benton Sans Book" font-size="13.3333" font-weight="400" font-style="normal" 
>
<rect x="323" y="997" width="16" height="114"/>
</g>
</g>

<g  clip-path="url(#clip14)" 
>
<g fill="#802f2d" fill-opacity="1" stroke="none" transform="matrix(1,0,0,1,12,12)"
font-family="Benton Sans Book" font-size="13.3333" font-weight="400" font-style="normal" 
>
<rect x="179" y="997" width="144" height="83"/>
</g>
</g>

<g  clip-path="url(#clip14)" 
>
<g fill="none" stroke="#000000" stroke-opacity="1" stroke-width="1" stroke-linecap="butt" stroke-linejoin="miter" stroke-miterlimit="2" transform="matrix(1,0,0,1,12,12)"
font-family="Benton Sans Book" font-size="13.3333" font-weight="400" font-style="normal" 
>
<rect x="179" y="997" width="144" height="83"/>
</g>
</g>

<g  clip-path="url(#clip14)" 
>
<g fill="#72246c" fill-opacity="1" stroke="none" transform="matrix(1,0,0,1,12,12)"
font-family="Benton Sans Book" font-size="13.3333" font-weight="400" font-style="normal" 
>
<rect x="464" y="1124" width="106" height="1"/>
</g>
</g>

<g  clip-path="url(#clip14)" 
>
<g fill="none" stroke="#000000" stroke-opacity="1" stroke-width="1" stroke-linecap="butt" stroke-linejoin="miter" stroke-miterlimit="2" transform="matrix(1,0,0,1,12,12)"
font-family="Benton Sans Book" font-size="13.3333" font-weight="400" font-style="normal" 
>
<rect x="464" y="1124" width="106" height="1"/>
</g>
</g>

<g  clip-path="url(#clip14)" 
>
<g fill="#005035" fill-opacity="1" stroke="none" transform="matrix(1,0,0,1,12,12)"
font-family="Benton Sans Book" font-size="13.3333" font-weight="400" font-style="normal" 
>
<rect x="464" y="997" width="106" height="125"/>
</g>
</g>

<g  clip-path="url(#clip14)" 
>
<g fill="none" stroke="#000000" stroke-opacity="1" stroke-width="1" stroke-linecap="butt" stroke-linejoin="miter" stroke-miterlimit="2" transform="matrix(1,0,0,1,12,12)"
font-family="Benton Sans Book" font-size="13.3333" font-weight="400" font-style="normal" 
>
<rect x="464" y="997" width="106" height="125"/>
</g>
</g>

<g  clip-path="url(#clip14)" 
>
<g fill="#a49665" fill-opacity="1" stroke="none" transform="matrix(1,0,0,1,12,12)"
font-family="Benton Sans Book" font-size="13.3333" font-weight="400" font-style="normal" 
>
<rect x="554" y="928" width="16" height="33"/>
</g>
</g>

<g  clip-path="url(#clip14)" 
>
<g fill="none" stroke="#000000" stroke-opacity="1" stroke-width="1" stroke-linecap="butt" stroke-linejoin="miter" stroke-miterlimit="2" transform="matrix(1,0,0,1,12,12)"
font-family="Benton Sans Book" font-size="13.3333" font-weight="400" font-style="normal" 
>
<rect x="554" y="928" width="16" height="33"/>
</g>
</g>

<g  clip-path="url(#clip14)" 
>
<g fill="#a49665" fill-opacity="1" stroke="none" transform="matrix(1,0,0,1,12,12)"
font-family="Benton Sans Book" font-size="13.3333" font-weight="400" font-style="normal" 
>
<rect x="537" y="961" width="27" height="19"/>
</g>
</g>

<g  clip-path="url(#clip14)" 
>
<g fill="none" stroke="#000000" stroke-opacity="1" stroke-width="1" stroke-linecap="butt" stroke-linejoin="miter" stroke-miterlimit="2" transform="matrix(1,0,0,1,12,12)"
font-family="Benton Sans Book" font-size="13.3333" font-weight="400" font-style="normal" 
>
<rect x="537" y="961" width="27" height="19"/>
</g>
</g>

<g  clip-path="url(#clip14)" 
>
<g fill="#a49665" fill-opacity="1" stroke="none" transform="matrix(1,0,0,1,12,12)"
font-family="Benton Sans Book" font-size="13.3333" font-weight="400" font-style="normal" 
>
<rect x="537" y="928" width="17" height="33"/>
</g>
</g>

<g  clip-path="url(#clip14)" 
>
<g fill="none" stroke="#000000" stroke-opacity="1" stroke-width="1" stroke-linecap="butt" stroke-linejoin="miter" stroke-miterlimit="2" transform="matrix(1,0,0,1,12,12)"
font-family="Benton Sans Book" font-size="13.3333" font-weight="400" font-style="normal" 
>
<rect x="537" y="928" width="17" height="33"/>
</g>
</g>

<g  clip-path="url(#clip14)" 
>
<g fill="#a49665" fill-opacity="1" stroke="none" transform="matrix(1,0,0,1,12,12)"
font-family="Benton Sans Book" font-size="13.3333" font-weight="400" font-style="normal" 
>
<rect x="564" y="961" width="6" height="27"/>
</g>
</g>

<g  clip-path="url(#clip14)" 
>
<g fill="none" stroke="#000000" stroke-opacity="1" stroke-width="1" stroke-linecap="butt" stroke-linejoin="miter" stroke-miterlimit="2" transform="matrix(1,0,0,1,12,12)"
font-family="Benton Sans Book" font-size="13.3333" font-weight="400" font-style="normal" 
>
<rect x="564" y="961" width="6" height="27"/>
</g>
</g>

<g  clip-path="url(#clip14)" 
>
<g fill="#a49665" fill-opacity="1" stroke="none" transform="matrix(1,0,0,1,12,12)"
font-family="Benton Sans Book" font-size="13.3333" font-weight="400" font-style="normal" 
>
<rect x="564" y="988" width="6" height="6"/>
</g>
</g>

<g  clip-path="url(#clip14)" 
>
<g fill="none" stroke="#000000" stroke-opacity="1" stroke-width="1" stroke-linecap="butt" stroke-linejoin="miter" stroke-miterlimit="2" transform="matrix(1,0,0,1,12,12)"
font-family="Benton Sans Book" font-size="13.3333" font-weight="400" font-style="normal" 
>
<rect x="564" y="988" width="6" height="6"/>
</g>
</g>

<g  clip-path="url(#clip14)" 
>
<g fill="#a49665" fill-opacity="1" stroke="none" transform="matrix(1,0,0,1,12,12)"
font-family="Benton Sans Book" font-size="13.3333" font-weight="400" font-style="normal" 
>
<rect x="473" y="974" width="64" height="20"/>
</g>
</g>

<g  clip-path="url(#clip14)" 
>
<g fill="none" stroke="#000000" stroke-opacity="1" stroke-width="1" stroke-linecap="butt" stroke-linejoin="miter" stroke-miterlimit="2" transform="matrix(1,0,0,1,12,12)"
font-family="Benton Sans Book" font-size="13.3333" font-weight="400" font-style="normal" 
>
<rect x="473" y="974" width="64" height="20"/>
</g>
</g>

<g  clip-path="url(#clip14)" 
>
<g fill="#a49665" fill-opacity="1" stroke="none" transform="matrix(1,0,0,1,12,12)"
font-family="Benton Sans Book" font-size="13.3333" font-weight="400" font-style="normal" 
>
<rect x="6" y="6" width="296" height="665"/>
</g>
</g>

<g  clip-path="url(#clip14)" 
>
<g fill="none" stroke="#000000" stroke-opacity="1" stroke-width="1" stroke-linecap="butt" stroke-linejoin="miter" stroke-miterlimit="2" transform="matrix(1,0,0,1,12,12)"
font-family="Benton Sans Book" font-size="13.3333" font-weight="400" font-style="normal" 
>
<rect x="6" y="6" width="296" height="665"/>
</g>
</g>

<g  clip-path="url(#clip14)" 
>
<g fill="#a49665" fill-opacity="1" stroke="none" transform="matrix(1,0,0,1,12,12)"
font-family="Benton Sans Book" font-size="13.3333" font-weight="400" font-style="normal" 
>
<rect x="473" y="928" width="64" height="46"/>
</g>
</g>

<g  clip-path="url(#clip14)" 
>
<g fill="none" stroke="#000000" stroke-opacity="1" stroke-width="1" stroke-linecap="butt" stroke-linejoin="miter" stroke-miterlimit="2" transform="matrix(1,0,0,1,12,12)"
font-family="Benton Sans Book" font-size="13.3333" font-weight="400" font-style="normal" 
>
<rect x="473" y="928" width="64" height="46"/>
</g>
</g>

<g  clip-path="url(#clip14)" 
>
<g fill="#a49665" fill-opacity="1" stroke="none" transform="matrix(1,0,0,1,12,12)"
font-family="Benton Sans Book" font-size="13.3333" font-weight="400" font-style="normal" 
>
<rect x="537" y="980" width="27" height="14"/>
</g>
</g>

<g  clip-path="url(#clip14)" 
>
<g fill="none" stroke="#000000" stroke-opacity="1" stroke-width="1" stroke-linecap="butt" stroke-linejoin="miter" stroke-miterlimit="2" transform="matrix(1,0,0,1,12,12)"
font-family="Benton Sans Book" font-size="13.3333" font-weight="400" font-style="normal" 
>
<rect x="537" y="980" width="27" height="14"/>
</g>
</g>

<g  clip-path="url(#clip14)" 
>
<g fill="#a49665" fill-opacity="1" stroke="none" transform="matrix(1,0,0,1,12,12)"
font-family="Benton Sans Book" font-size="13.3333" font-weight="400" font-style="normal" 
>
<rect x="473" y="671" width="97" height="180"/>
</g>
</g>

<g  clip-path="url(#clip14)" 
>
<g fill="none" stroke="#000000" stroke-opacity="1" stroke-width="1" stroke-linecap="butt" stroke-linejoin="miter" stroke-miterlimit="2" transform="matrix(1,0,0,1,12,12)"
font-family="Benton Sans Book" font-size="13.3333" font-weight="400" font-style="normal" 
>
<rect x="473" y="671" width="97" height="180"/>
</g>
</g>

<g  clip-path="url(#clip14)" 
>
<g fill="#a49665" fill-opacity="1" stroke="none" transform="matrix(1,0,0,1,12,12)"
font-family="Benton Sans Book" font-size="13.3333" font-weight="400" font-style="normal" 
>
<rect x="6" y="671" width="467" height="323"/>
</g>
</g>

<g  clip-path="url(#clip14)" 
>
<g fill="none" stroke="#000000" stroke-opacity="1" stroke-width="1" stroke-linecap="butt" stroke-linejoin="miter" stroke-miterlimit="2" transform="matrix(1,0,0,1,12,12)"
font-family="Benton Sans Book" font-size="13.3333" font-weight="400" font-style="normal" 
>
<rect x="6" y="671" width="467" height="323"/>
</g>
</g>

<g  clip-path="url(#clip14)" 
>
<g fill="#a49665" fill-opacity="1" stroke="none" transform="matrix(1,0,0,1,12,12)"
font-family="Benton Sans Book" font-size="13.3333" font-weight="400" font-style="normal" 
>
<rect x="473" y="851" width="97" height="77"/>
</g>
</g>

<g  clip-path="url(#clip14)" 
>
<g fill="none" stroke="#000000" stroke-opacity="1" stroke-width="1" stroke-linecap="butt" stroke-linejoin="miter" stroke-miterlimit="2" transform="matrix(1,0,0,1,12,12)"
font-family="Benton Sans Book" font-size="13.3333" font-weight="400" font-style="normal" 
>
<rect x="473" y="851" width="97" height="77"/>
</g>
</g>

<g  clip-path="url(#clip14)" 
>
<g fill="#a49665" fill-opacity="1" stroke="none" transform="matrix(1,0,0,1,12,12)"
font-family="Benton Sans Book" font-size="13.3333" font-weight="400" font-style="normal" 
>
<rect x="302" y="6" width="268" height="665"/>
</g>
</g>

<g  clip-path="url(#clip14)" 
>
<g fill="none" stroke="#000000" stroke-opacity="1" stroke-width="1" stroke-linecap="butt" stroke-linejoin="miter" stroke-miterlimit="2" transform="matrix(1,0,0,1,12,12)"
font-family="Benton Sans Book" font-size="13.3333" font-weight="400" font-style="normal" 
>
<rect x="302" y="6" width="268" height="665"/>
</g>
</g>

<g  clip-path="url(#clip14)" 
>
<g fill="#717c7d" fill-opacity="1" stroke="none" transform="matrix(1,0,0,1,12,12)"
font-family="Benton Sans Book" font-size="13.3333" font-weight="400" font-style="normal" 
>
<rect x="343" y="997" width="117" height="126"/>
</g>
</g>

<g  clip-path="url(#clip14)" 
>
<g fill="none" stroke="#000000" stroke-opacity="1" stroke-width="1" stroke-linecap="butt" stroke-linejoin="miter" stroke-miterlimit="2" transform="matrix(1,0,0,1,12,12)"
font-family="Benton Sans Book" font-size="13.3333" font-weight="400" font-style="normal" 
>
<rect x="343" y="997" width="117" height="126"/>
</g>
</g>

<clipPath id ="clip15" >
<rect x="0" y="0" height="1130" width="577" transform="matrix(1,0,0,1,12,12)" />
</clipPath>
<g  clip-path="url(#clip15)" 
>
<g fill="none" stroke="#000000" stroke-opacity="1" stroke-width="1" stroke-linecap="butt" stroke-linejoin="miter" stroke-miterlimit="2" transform="matrix(1,0,0,1,12,12)"
font-family="Benton Sans Book" font-size="13.3333" font-weight="400" font-style="normal" 
>
</g>
</g>

<clipPath id ="clip16" >
<rect x="0" y="0" height="1129" width="576" transform="matrix(1,0,0,1,12,12)" />
</clipPath>
<g  clip-path="url(#clip16)" 
>
<g fill="none" stroke="#000000" stroke-opacity="1" stroke-width="1" stroke-linecap="butt" stroke-linejoin="miter" stroke-miterlimit="2" transform="matrix(1,0,0,1,12,12)"
font-family="Benton Sans Book" font-size="13.3333" font-weight="400" font-style="normal" 
>
</g>
</g>

<g  clip-path="url(#clip16)" 
>
<g fill="none" stroke="#ffffff" stroke-opacity="1" stroke-width="1" stroke-linecap="square" stroke-linejoin="bevel" transform="matrix(1,0,0,1,12,12)"
font-family="Arial" font-size="12" font-weight="700" font-style="normal" 
>
<text fill="#ffffff" fill-opacity="1" stroke="none" xml:space="preserve" x="67" y="1048" font-family="Arial" font-size="12" font-weight="700" font-style="normal" 
 >Primates</text>
</g>
</g>

<g  clip-path="url(#clip16)" 
>
<g fill="none" stroke="#ffffff" stroke-opacity="1" stroke-width="1" stroke-linecap="square" stroke-linejoin="bevel" transform="matrix(1,0,0,1,12,12)"
font-family="Arial" font-size="12" font-weight="700" font-style="normal" 
>
<text fill="#ffffff" fill-opacity="1" stroke="none" xml:space="preserve" x="59" y="1062" font-family="Arial" font-size="12" font-weight="700" font-style="normal" 
 >666 (3.56%)</text>
</g>
</g>

<g  clip-path="url(#clip16)" 
>
<g fill="none" stroke="#ffffff" stroke-opacity="1" stroke-width="1" stroke-linecap="square" stroke-linejoin="bevel" transform="matrix(1,0,0,1,12,12)"
font-family="Arial" font-size="12" font-weight="700" font-style="normal" 
>
<text fill="#ffffff" fill-opacity="1" stroke="none" xml:space="preserve" x="222" y="1089" font-family="Arial" font-size="12" font-weight="700" font-style="normal" 
 >Carnivora</text>
</g>
</g>

<g  clip-path="url(#clip16)" 
>
<g fill="none" stroke="#ffffff" stroke-opacity="1" stroke-width="1" stroke-linecap="square" stroke-linejoin="bevel" transform="matrix(1,0,0,1,12,12)"
font-family="Arial" font-size="12" font-weight="700" font-style="normal" 
>
<text fill="#ffffff" fill-opacity="1" stroke="none" xml:space="preserve" x="218" y="1103" font-family="Arial" font-size="12" font-weight="700" font-style="normal" 
 >191 (1.02%)</text>
</g>
</g>

<g  clip-path="url(#clip16)" 
>
<g fill="none" stroke="#ffffff" stroke-opacity="1" stroke-width="1" stroke-linecap="square" stroke-linejoin="bevel" transform="matrix(1,0,0,1,12,12)"
font-family="Arial" font-size="12" font-weight="700" font-style="normal" 
>
<text fill="#ffffff" fill-opacity="1" stroke="none" xml:space="preserve" x="213" y="1026" font-family="Arial" font-size="12" font-weight="700" font-style="normal" 
 >Not Specified</text>
</g>
</g>

<g  clip-path="url(#clip16)" 
>
<g fill="none" stroke="#ffffff" stroke-opacity="1" stroke-width="1" stroke-linecap="square" stroke-linejoin="bevel" transform="matrix(1,0,0,1,12,12)"
font-family="Arial" font-size="12" font-weight="700" font-style="normal" 
>
<text fill="#ffffff" fill-opacity="1" stroke="none" xml:space="preserve" x="218" y="1040" font-family="Arial" font-size="12" font-weight="700" font-style="normal" 
 >360 (1.93%)</text>
</g>
</g>

<g  clip-path="url(#clip16)" 
>
<g fill="none" stroke="#ffffff" stroke-opacity="1" stroke-width="1" stroke-linecap="square" stroke-linejoin="bevel" transform="matrix(1,0,0,1,12,12)"
font-family="Arial" font-size="12" font-weight="700" font-style="normal" 
>
<text fill="#ffffff" fill-opacity="1" stroke="none" xml:space="preserve" x="479" y="1048" font-family="Arial" font-size="12" font-weight="700" font-style="normal" 
 >Not Specified</text>
</g>
</g>

<g  clip-path="url(#clip16)" 
>
<g fill="none" stroke="#ffffff" stroke-opacity="1" stroke-width="1" stroke-linecap="square" stroke-linejoin="bevel" transform="matrix(1,0,0,1,12,12)"
font-family="Arial" font-size="12" font-weight="700" font-style="normal" 
>
<text fill="#ffffff" fill-opacity="1" stroke="none" xml:space="preserve" x="484" y="1062" font-family="Arial" font-size="12" font-weight="700" font-style="normal" 
 >416 (2.23%)</text>
</g>
</g>

<g  clip-path="url(#clip16)" 
>
<g fill="none" stroke="#ffffff" stroke-opacity="1" stroke-width="1" stroke-linecap="square" stroke-linejoin="bevel" transform="matrix(1,0,0,1,12,12)"
font-family="Arial" font-size="12" font-weight="700" font-style="normal" 
>
<text fill="#ffffff" fill-opacity="1" stroke="none" xml:space="preserve" x="121" y="326" font-family="Arial" font-size="12" font-weight="700" font-style="normal" 
 >Galliformes</text>
</g>
</g>

<g  clip-path="url(#clip16)" 
>
<g fill="none" stroke="#ffffff" stroke-opacity="1" stroke-width="1" stroke-linecap="square" stroke-linejoin="bevel" transform="matrix(1,0,0,1,12,12)"
font-family="Arial" font-size="12" font-weight="700" font-style="normal" 
>
<text fill="#ffffff" fill-opacity="1" stroke="none" xml:space="preserve" x="113" y="340" font-family="Arial" font-size="12" font-weight="700" font-style="normal" 
 >5,844 (31.26%)</text>
</g>
</g>

<g  clip-path="url(#clip16)" 
>
<g fill="none" stroke="#ffffff" stroke-opacity="1" stroke-width="1" stroke-linecap="square" stroke-linejoin="bevel" transform="matrix(1,0,0,1,12,12)"
font-family="Arial" font-size="12" font-weight="700" font-style="normal" 
>
<text fill="#ffffff" fill-opacity="1" stroke="none" xml:space="preserve" x="200" y="820" font-family="Arial" font-size="12" font-weight="700" font-style="normal" 
 >Anseriformes</text>
</g>
</g>

<g  clip-path="url(#clip16)" 
>
<g fill="none" stroke="#ffffff" stroke-opacity="1" stroke-width="1" stroke-linecap="square" stroke-linejoin="bevel" transform="matrix(1,0,0,1,12,12)"
font-family="Arial" font-size="12" font-weight="700" font-style="normal" 
>
<text fill="#ffffff" fill-opacity="1" stroke="none" xml:space="preserve" x="198" y="834" font-family="Arial" font-size="12" font-weight="700" font-style="normal" 
 >4,469 (23.91%)</text>
</g>
</g>

<g  clip-path="url(#clip16)" 
>
<g fill="none" stroke="#ffffff" stroke-opacity="1" stroke-width="1" stroke-linecap="square" stroke-linejoin="bevel" transform="matrix(1,0,0,1,12,12)"
font-family="Arial" font-size="12" font-weight="700" font-style="normal" 
>
<text fill="#ffffff" fill-opacity="1" stroke="none" xml:space="preserve" x="397" y="326" font-family="Arial" font-size="12" font-weight="700" font-style="normal" 
 >Not Specified</text>
</g>
</g>

<g  clip-path="url(#clip16)" 
>
<g fill="none" stroke="#ffffff" stroke-opacity="1" stroke-width="1" stroke-linecap="square" stroke-linejoin="bevel" transform="matrix(1,0,0,1,12,12)"
font-family="Arial" font-size="12" font-weight="700" font-style="normal" 
>
<text fill="#ffffff" fill-opacity="1" stroke="none" xml:space="preserve" x="395" y="340" font-family="Arial" font-size="12" font-weight="700" font-style="normal" 
 >5,287 (28.28%)</text>
</g>
</g>

<g  clip-path="url(#clip16)" 
>
<g fill="none" stroke="#ffffff" stroke-opacity="1" stroke-width="1" stroke-linecap="square" stroke-linejoin="bevel" transform="matrix(1,0,0,1,12,12)"
font-family="Arial" font-size="12" font-weight="700" font-style="normal" 
>
<text fill="#ffffff" fill-opacity="1" stroke="none" xml:space="preserve" x="363" y="1048" font-family="Arial" font-size="12" font-weight="700" font-style="normal" 
 >Not Specified</text>
</g>
</g>

<g  clip-path="url(#clip16)" 
>
<g fill="none" stroke="#ffffff" stroke-opacity="1" stroke-width="1" stroke-linecap="square" stroke-linejoin="bevel" transform="matrix(1,0,0,1,12,12)"
font-family="Arial" font-size="12" font-weight="700" font-style="normal" 
>
<text fill="#ffffff" fill-opacity="1" stroke="none" xml:space="preserve" x="368" y="1062" font-family="Arial" font-size="12" font-weight="700" font-style="normal" 
 >460 (2.46%)</text>
</g>
</g>

<clipPath id ="clip17" >
<rect x="0" y="0" height="1130" width="577" transform="matrix(1,0,0,1,12,12)" />
</clipPath>
<g  clip-path="url(#clip17)" 
>
<g fill="none" stroke="#ffffff" stroke-opacity="1" stroke-width="1" stroke-linecap="square" stroke-linejoin="bevel" transform="matrix(1,0,0,1,12,12)"
font-family="Arial" font-size="12" font-weight="700" font-style="normal" 
>
</g>
</g>

<clipPath id ="clip18" >
<rect x="0" y="0" height="1130" width="577" transform="matrix(1,0,0,1,12,12)" />
</clipPath>
<g  clip-path="url(#clip18)" 
>
<g fill="none" stroke="#ffffff" stroke-opacity="1" stroke-width="1" stroke-linecap="square" stroke-linejoin="bevel" transform="matrix(1,0,0,1,12,12)"
font-family="Arial" font-size="12" font-weight="700" font-style="normal" 
>
</g>
</g>

<clipPath id ="clip19" >
<rect x="0" y="0" height="1129" width="576" transform="matrix(1,0,0,1,12,12)" />
</clipPath>
<g  clip-path="url(#clip19)" 
>
<g fill="none" stroke="#ffffff" stroke-opacity="1" stroke-width="1" stroke-linecap="square" stroke-linejoin="bevel" transform="matrix(1,0,0,1,12,12)"
font-family="Arial" font-size="12" font-weight="700" font-style="normal" 
>
</g>
</g>

<clipPath id ="clip20" >
<rect x="0" y="0" height="1130" width="577" transform="matrix(1,0,0,1,12,12)" />
</clipPath>
<g  clip-path="url(#clip20)" 
>
<g fill="none" stroke="#ffffff" stroke-opacity="1" stroke-width="1" stroke-linecap="square" stroke-linejoin="bevel" transform="matrix(1,0,0,1,12,12)"
font-family="Arial" font-size="12" font-weight="700" font-style="normal" 
>
</g>
</g>

<clipPath id ="clip21" >
<rect x="0" y="0" height="1129" width="576" transform="matrix(1,0,0,1,12,12)" />
</clipPath>
<g  clip-path="url(#clip21)" 
>
<g fill="none" stroke="#ffffff" stroke-opacity="1" stroke-width="1" stroke-linecap="square" stroke-linejoin="bevel" transform="matrix(1,0,0,1,12,12)"
font-family="Arial" font-size="12" font-weight="700" font-style="normal" 
>
</g>
</g>

<clipPath id ="clip22" >
<rect x="0" y="0" height="1130" width="577" transform="matrix(1,0,0,1,12,12)" />
</clipPath>
<g  clip-path="url(#clip22)" 
>
<g fill="none" stroke="#ffffff" stroke-opacity="1" stroke-width="1" stroke-linecap="square" stroke-linejoin="bevel" transform="matrix(1,0,0,1,12,12)"
font-family="Arial" font-size="12" font-weight="700" font-style="normal" 
>
</g>
</g>

<clipPath id ="clip23" >
<rect x="0" y="0" height="1130" width="577" transform="matrix(1,0,0,1,12,12)" />
</clipPath>
<g  clip-path="url(#clip23)" 
>
<g fill="none" stroke="#ffffff" stroke-opacity="1" stroke-width="1" stroke-linecap="square" stroke-linejoin="bevel" transform="matrix(1,0,0,1,12,12)"
font-family="Arial" font-size="12" font-weight="700" font-style="normal" 
>
</g>
</g>

<clipPath id ="clip24" >
<rect x="0" y="0" height="1129" width="576" transform="matrix(1,0,0,1,12,12)" />
</clipPath>
<g  clip-path="url(#clip24)" 
>
<g fill="none" stroke="#ffffff" stroke-opacity="1" stroke-width="1" stroke-linecap="square" stroke-linejoin="bevel" transform="matrix(1,0,0,1,12,12)"
font-family="Arial" font-size="12" font-weight="700" font-style="normal" 
>
</g>
</g>

<clipPath id ="clip25" >
<rect x="0" y="0" height="1130" width="577" transform="matrix(1,0,0,1,12,12)" />
</clipPath>
<g  clip-path="url(#clip25)" 
>
<g fill="none" stroke="#ffffff" stroke-opacity="1" stroke-width="1" stroke-linecap="square" stroke-linejoin="bevel" transform="matrix(1,0,0,1,12,12)"
font-family="Arial" font-size="12" font-weight="700" font-style="normal" 
>
</g>
</g>

<clipPath id ="clip26" >
<rect x="0" y="0" height="1129" width="576" transform="matrix(1,0,0,1,12,12)" />
</clipPath>
<g  clip-path="url(#clip26)" 
>
<g fill="none" stroke="#ffffff" stroke-opacity="1" stroke-width="1" stroke-linecap="square" stroke-linejoin="bevel" transform="matrix(1,0,0,1,12,12)"
font-family="Arial" font-size="12" font-weight="700" font-style="normal" 
>
</g>
</g>

<clipPath id ="clip27" >
<rect x="0" y="0" height="1130" width="577" transform="matrix(1,0,0,1,12,12)" />
</clipPath>
<g  clip-path="url(#clip27)" 
>
<g fill="none" stroke="#ffffff" stroke-opacity="1" stroke-width="1" stroke-linecap="square" stroke-linejoin="bevel" transform="matrix(1,0,0,1,12,12)"
font-family="Arial" font-size="12" font-weight="700" font-style="normal" 
>
</g>
</g>

<clipPath id ="clip28" >
<rect x="0" y="0" height="1130" width="577" transform="matrix(1,0,0,1,12,12)" />
</clipPath>
<g  clip-path="url(#clip28)" 
>
<g fill="none" stroke="#ffffff" stroke-opacity="1" stroke-width="1" stroke-linecap="square" stroke-linejoin="bevel" transform="matrix(1,0,0,1,12,12)"
font-family="Arial" font-size="12" font-weight="700" font-style="normal" 
>
</g>
</g>

<clipPath id ="clip29" >
<rect x="0" y="0" height="1129" width="576" transform="matrix(1,0,0,1,12,12)" />
</clipPath>
<g  clip-path="url(#clip29)" 
>
<g fill="none" stroke="#ffffff" stroke-opacity="1" stroke-width="1" stroke-linecap="square" stroke-linejoin="bevel" transform="matrix(1,0,0,1,12,12)"
font-family="Arial" font-size="12" font-weight="700" font-style="normal" 
>
</g>
</g>

<clipPath id ="clip30" >
<rect x="0" y="0" height="1130" width="577" transform="matrix(1,0,0,1,12,12)" />
</clipPath>
<g  clip-path="url(#clip30)" 
>
<g fill="none" stroke="#ffffff" stroke-opacity="1" stroke-width="1" stroke-linecap="square" stroke-linejoin="bevel" transform="matrix(1,0,0,1,12,12)"
font-family="Arial" font-size="12" font-weight="700" font-style="normal" 
>
</g>
</g>

<clipPath id ="clip31" >
<rect x="0" y="0" height="1129" width="576" transform="matrix(1,0,0,1,12,12)" />
</clipPath>
<g  clip-path="url(#clip31)" 
>
<g fill="none" stroke="#ffffff" stroke-opacity="1" stroke-width="1" stroke-linecap="square" stroke-linejoin="bevel" transform="matrix(1,0,0,1,12,12)"
font-family="Arial" font-size="12" font-weight="700" font-style="normal" 
>
</g>
</g>

<clipPath id ="clip32" >
<rect x="0" y="0" height="1130" width="577" transform="matrix(1,0,0,1,12,12)" />
</clipPath>
<g  clip-path="url(#clip32)" 
>
<g fill="none" stroke="#ffffff" stroke-opacity="1" stroke-width="1" stroke-linecap="square" stroke-linejoin="bevel" transform="matrix(1,0,0,1,12,12)"
font-family="Arial" font-size="12" font-weight="700" font-style="normal" 
>
</g>
</g>

<clipPath id ="clip33" >
<rect x="0" y="0" height="1130" width="577" transform="matrix(1,0,0,1,12,12)" />
</clipPath>
<g  clip-path="url(#clip33)" 
>
<g fill="none" stroke="#ffffff" stroke-opacity="1" stroke-width="1" stroke-linecap="square" stroke-linejoin="bevel" transform="matrix(1,0,0,1,12,12)"
font-family="Arial" font-size="12" font-weight="700" font-style="normal" 
>
</g>
</g>

<clipPath id ="clip34" >
<rect x="0" y="0" height="1129" width="576" transform="matrix(1,0,0,1,12,12)" />
</clipPath>
<g  clip-path="url(#clip34)" 
>
<g fill="none" stroke="#ffffff" stroke-opacity="1" stroke-width="1" stroke-linecap="square" stroke-linejoin="bevel" transform="matrix(1,0,0,1,12,12)"
font-family="Arial" font-size="12" font-weight="700" font-style="normal" 
>
</g>
</g>

<clipPath id ="clip35" >
<rect x="0" y="0" height="1130" width="577" transform="matrix(1,0,0,1,12,12)" />
</clipPath>
<g  clip-path="url(#clip35)" 
>
<g fill="none" stroke="#ffffff" stroke-opacity="1" stroke-width="1" stroke-linecap="square" stroke-linejoin="bevel" transform="matrix(1,0,0,1,12,12)"
font-family="Arial" font-size="12" font-weight="700" font-style="normal" 
>
</g>
</g>

<clipPath id ="clip36" >
<rect x="0" y="0" height="1129" width="576" transform="matrix(1,0,0,1,12,12)" />
</clipPath>
<g  clip-path="url(#clip36)" 
>
<g fill="none" stroke="#ffffff" stroke-opacity="1" stroke-width="1" stroke-linecap="square" stroke-linejoin="bevel" transform="matrix(1,0,0,1,12,12)"
font-family="Arial" font-size="12" font-weight="700" font-style="normal" 
>
</g>
</g>

<clipPath id ="clip37" >
<rect x="0" y="0" height="1130" width="577" transform="matrix(1,0,0,1,12,12)" />
</clipPath>
<g  clip-path="url(#clip37)" 
>
<g fill="none" stroke="#ffffff" stroke-opacity="1" stroke-width="1" stroke-linecap="square" stroke-linejoin="bevel" transform="matrix(1,0,0,1,12,12)"
font-family="Arial" font-size="12" font-weight="700" font-style="normal" 
>
</g>
</g>

<g >
<g fill="none" stroke="#ffffff" stroke-opacity="1" stroke-width="1" stroke-linecap="square" stroke-linejoin="bevel" transform="matrix(1,0,0,1,12,12)"
font-family="Arial" font-size="12" font-weight="700" font-style="normal" 
>
</g>
</g>

<clipPath id ="clip38" >
<rect x="0" y="0" height="39" width="576" transform="matrix(1,0,0,1,12,1149)" />
</clipPath>
<g  clip-path="url(#clip38)" 
>
<g fill="none" stroke="#ffffff" stroke-opacity="1" stroke-width="1" stroke-linecap="square" stroke-linejoin="bevel" transform="matrix(1,0,0,1,12,1149)"
font-family="Arial" font-size="12" font-weight="700" font-style="normal" 
>
</g>
</g>

<g  clip-path="url(#clip38)" 
>
<g fill="#ffffff" fill-opacity="0" stroke="none" transform="matrix(1,0,0,1,12,1149)"
font-family="Arial" font-size="12" font-weight="700" font-style="normal" 
>
<rect x="0" y="0" width="576" height="39"/>
</g>
</g>

<g  clip-path="url(#clip38)" 
>
<g fill="none" stroke="#333333" stroke-opacity="1" stroke-width="1" stroke-linecap="square" stroke-linejoin="bevel" transform="matrix(1,0,0,1,12,1149)"
font-family="Arial" font-size="12" font-weight="400" font-style="normal" 
>
<text fill="#333333" fill-opacity="1" stroke="none" xml:space="preserve" x="1" y="13" font-family="Arial" font-size="12" font-weight="400" font-style="normal" 
 >Antigen Host Class</text>
</g>
</g>

<g  clip-path="url(#clip38)" 
>
<g fill="#ffffff" fill-opacity="1" stroke="none" transform="matrix(1,0,0,1,12,1149)"
font-family="Arial" font-size="12" font-weight="400" font-style="normal" 
>
<rect x="4" y="19" width="12" height="12"/>
</g>
</g>

<g  clip-path="url(#clip38)" 
>
<g fill="#717c7d" fill-opacity="1" stroke="none" transform="matrix(1,0,0,1,12,1149)"
font-family="Arial" font-size="12" font-weight="400" font-style="normal" 
>
<rect x="4" y="19" width="12" height="12"/>
</g>
</g>

<g  clip-path="url(#clip38)" 
>
<g fill="none" stroke="#000000" stroke-opacity="1" stroke-width="1" stroke-linecap="butt" stroke-linejoin="bevel" transform="matrix(1,0,0,1,12,1149)"
font-family="Arial" font-size="12" font-weight="400" font-style="normal" 
>
<rect x="4" y="19" width="12" height="12"/>
</g>
</g>

<g  clip-path="url(#clip38)" 
>
<g fill="none" stroke="#333333" stroke-opacity="1" stroke-width="1" stroke-linecap="square" stroke-linejoin="bevel" transform="matrix(1,0,0,1,12,1149)"
font-family="Arial" font-size="12" font-weight="400" font-style="normal" 
>
<text fill="#333333" fill-opacity="1" stroke="none" xml:space="preserve" x="22" y="29" font-family="Arial" font-size="12" font-weight="400" font-style="normal" 
 >Not Reported</text>
</g>
</g>

<g  clip-path="url(#clip38)" 
>
<g fill="#ffffff" fill-opacity="1" stroke="none" transform="matrix(1,0,0,1,12,1149)"
font-family="Arial" font-size="12" font-weight="400" font-style="normal" 
>
<rect x="114" y="19" width="12" height="12"/>
</g>
</g>

<g  clip-path="url(#clip38)" 
>
<g fill="#a49665" fill-opacity="1" stroke="none" transform="matrix(1,0,0,1,12,1149)"
font-family="Arial" font-size="12" font-weight="400" font-style="normal" 
>
<rect x="114" y="19" width="12" height="12"/>
</g>
</g>

<g  clip-path="url(#clip38)" 
>
<g fill="none" stroke="#000000" stroke-opacity="1" stroke-width="1" stroke-linecap="butt" stroke-linejoin="bevel" transform="matrix(1,0,0,1,12,1149)"
font-family="Arial" font-size="12" font-weight="400" font-style="normal" 
>
<rect x="114" y="19" width="12" height="12"/>
</g>
</g>

<g  clip-path="url(#clip38)" 
>
<g fill="none" stroke="#333333" stroke-opacity="1" stroke-width="1" stroke-linecap="square" stroke-linejoin="bevel" transform="matrix(1,0,0,1,12,1149)"
font-family="Arial" font-size="12" font-weight="400" font-style="normal" 
>
<text fill="#333333" fill-opacity="1" stroke="none" xml:space="preserve" x="132" y="29" font-family="Arial" font-size="12" font-weight="400" font-style="normal" 
 >Aves</text>
</g>
</g>

<g  clip-path="url(#clip38)" 
>
<g fill="#ffffff" fill-opacity="1" stroke="none" transform="matrix(1,0,0,1,12,1149)"
font-family="Arial" font-size="12" font-weight="400" font-style="normal" 
>
<rect x="224" y="19" width="12" height="12"/>
</g>
</g>

<g  clip-path="url(#clip38)" 
>
<g fill="#005035" fill-opacity="1" stroke="none" transform="matrix(1,0,0,1,12,1149)"
font-family="Arial" font-size="12" font-weight="400" font-style="normal" 
>
<rect x="224" y="19" width="12" height="12"/>
</g>
</g>

<g  clip-path="url(#clip38)" 
>
<g fill="none" stroke="#000000" stroke-opacity="1" stroke-width="1" stroke-linecap="butt" stroke-linejoin="bevel" transform="matrix(1,0,0,1,12,1149)"
font-family="Arial" font-size="12" font-weight="400" font-style="normal" 
>
<rect x="224" y="19" width="12" height="12"/>
</g>
</g>

<g  clip-path="url(#clip38)" 
>
<g fill="none" stroke="#333333" stroke-opacity="1" stroke-width="1" stroke-linecap="square" stroke-linejoin="bevel" transform="matrix(1,0,0,1,12,1149)"
font-family="Arial" font-size="12" font-weight="400" font-style="normal" 
>
<text fill="#333333" fill-opacity="1" stroke="none" xml:space="preserve" x="242" y="29" font-family="Arial" font-size="12" font-weight="400" font-style="normal" 
 >Environment</text>
</g>
</g>

<g  clip-path="url(#clip38)" 
>
<g fill="#ffffff" fill-opacity="1" stroke="none" transform="matrix(1,0,0,1,12,1149)"
font-family="Arial" font-size="12" font-weight="400" font-style="normal" 
>
<rect x="334" y="19" width="12" height="12"/>
</g>
</g>

<g  clip-path="url(#clip38)" 
>
<g fill="#72246c" fill-opacity="1" stroke="none" transform="matrix(1,0,0,1,12,1149)"
font-family="Arial" font-size="12" font-weight="400" font-style="normal" 
>
<rect x="334" y="19" width="12" height="12"/>
</g>
</g>

<g  clip-path="url(#clip38)" 
>
<g fill="none" stroke="#000000" stroke-opacity="1" stroke-width="1" stroke-linecap="butt" stroke-linejoin="bevel" transform="matrix(1,0,0,1,12,1149)"
font-family="Arial" font-size="12" font-weight="400" font-style="normal" 
>
<rect x="334" y="19" width="12" height="12"/>
</g>
</g>

<g  clip-path="url(#clip38)" 
>
<g fill="none" stroke="#333333" stroke-opacity="1" stroke-width="1" stroke-linecap="square" stroke-linejoin="bevel" transform="matrix(1,0,0,1,12,1149)"
font-family="Arial" font-size="12" font-weight="400" font-style="normal" 
>
<text fill="#333333" fill-opacity="1" stroke="none" xml:space="preserve" x="352" y="29" font-family="Arial" font-size="12" font-weight="400" font-style="normal" 
 >Insecta</text>
</g>
</g>

<g  clip-path="url(#clip38)" 
>
<g fill="#ffffff" fill-opacity="1" stroke="none" transform="matrix(1,0,0,1,12,1149)"
font-family="Arial" font-size="12" font-weight="400" font-style="normal" 
>
<rect x="444" y="19" width="12" height="12"/>
</g>
</g>

<g  clip-path="url(#clip38)" 
>
<g fill="#802f2d" fill-opacity="1" stroke="none" transform="matrix(1,0,0,1,12,1149)"
font-family="Arial" font-size="12" font-weight="400" font-style="normal" 
>
<rect x="444" y="19" width="12" height="12"/>
</g>
</g>

<g  clip-path="url(#clip38)" 
>
<g fill="none" stroke="#000000" stroke-opacity="1" stroke-width="1" stroke-linecap="butt" stroke-linejoin="bevel" transform="matrix(1,0,0,1,12,1149)"
font-family="Arial" font-size="12" font-weight="400" font-style="normal" 
>
<rect x="444" y="19" width="12" height="12"/>
</g>
</g>

<g  clip-path="url(#clip38)" 
>
<g fill="none" stroke="#333333" stroke-opacity="1" stroke-width="1" stroke-linecap="square" stroke-linejoin="bevel" transform="matrix(1,0,0,1,12,1149)"
font-family="Arial" font-size="12" font-weight="400" font-style="normal" 
>
<text fill="#333333" fill-opacity="1" stroke="none" xml:space="preserve" x="462" y="29" font-family="Arial" font-size="12" font-weight="400" font-style="normal" 
 >Mammalia</text>
</g>
</g>

<g >
<g fill="none" stroke="#333333" stroke-opacity="1" stroke-width="1" stroke-linecap="square" stroke-linejoin="bevel" transform="matrix(1,0,0,1,12,1149)"
font-family="Arial" font-size="12" font-weight="400" font-style="normal" 
>
</g>
</g>
</g>
</svg>
