<svg width="3733" height="1955" xmlns="http://www.w3.org/2000/svg" xmlns:xlink="http://www.w3.org/1999/xlink" xml:space="preserve" overflow="hidden"><defs><linearGradient x1="0" y1="0.655381" x2="269.795" y2="0.655381" gradientUnits="userSpaceOnUse" spreadMethod="reflect" id="fill0"><stop offset="0" stop-color="#196B24"/><stop offset="0.00746269" stop-color="#1A6A25"/><stop offset="0.0149254" stop-color="#1C6A27"/><stop offset="0.0223881" stop-color="#1E6A28"/><stop offset="0.0298507" stop-color="#206A2A"/><stop offset="0.0373134" stop-color="#226A2B"/><stop offset="0.0447761" stop-color="#246A2D"/><stop offset="0.0522388" stop-color="#256A2E"/><stop offset="0.0597015" stop-color="#276A30"/><stop offset="0.0671642" stop-color="#296A31"/><stop offset="0.0746269" stop-color="#2B6A33"/><stop offset="0.0820896" stop-color="#2D6A34"/><stop offset="0.0895522" stop-color="#2E6A35"/><stop offset="0.0970149" stop-color="#306A37"/><stop offset="0.104478" stop-color="#326A38"/><stop offset="0.11194" stop-color="#33693A"/><stop offset="0.119403" stop-color="#35693B"/><stop offset="0.126866" stop-color="#37693C"/><stop offset="0.134328" stop-color="#38693E"/><stop offset="0.141791" stop-color="#3A693F"/><stop offset="0.149254" stop-color="#3C6941"/><stop offset="0.156716" stop-color="#3D6942"/><stop offset="0.164179" stop-color="#3F6843"/><stop offset="0.171642" stop-color="#416845"/><stop offset="0.179104" stop-color="#426846"/><stop offset="0.186567" stop-color="#446847"/><stop offset="0.19403" stop-color="#456848"/><stop offset="0.201493" stop-color="#47674A"/><stop offset="0.208955" stop-color="#49674B"/><stop offset="0.216418" stop-color="#4A674C"/><stop offset="0.223881" stop-color="#4C674D"/><stop offset="0.231343" stop-color="#4D664F"/><stop offset="0.238806" stop-color="#4F6650"/><stop offset="0.246269" stop-color="#506651"/><stop offset="0.253731" stop-color="#526652"/><stop offset="0.261194" stop-color="#536554"/><stop offset="0.268657" stop-color="#546555"/><stop offset="0.276119" stop-color="#566556"/><stop offset="0.283582" stop-color="#576457"/><stop offset="0.291045" stop-color="#596458"/><stop offset="0.298507" stop-color="#5A6459"/><stop offset="0.30597" stop-color="#5B645B"/><stop offset="0.313433" stop-color="#5D635C"/><stop offset="0.320896" stop-color="#5E635D"/><stop offset="0.328358" stop-color="#5F635E"/><stop offset="0.335821" stop-color="#61625F"/><stop offset="0.343284" stop-color="#626260"/><stop offset="0.350746" stop-color="#636261"/><stop offset="0.358209" stop-color="#656162"/><stop offset="0.365672" stop-color="#666163"/><stop offset="0.373134" stop-color="#676064"/><stop offset="0.380597" stop-color="#696065"/><stop offset="0.38806" stop-color="#6A6066"/><stop offset="0.395522" stop-color="#6B5F67"/><stop offset="0.402985" stop-color="#6C5F68"/><stop offset="0.410448" stop-color="#6D5E69"/><stop offset="0.41791" stop-color="#6F5E6A"/><stop offset="0.425373" stop-color="#705E6B"/><stop offset="0.432836" stop-color="#715D6C"/><stop offset="0.440298" stop-color="#725D6D"/><stop offset="0.447761" stop-color="#735C6E"/><stop offset="0.455224" stop-color="#745C6F"/><stop offset="0.462687" stop-color="#755B70"/><stop offset="0.470149" stop-color="#765B71"/><stop offset="0.477612" stop-color="#785A72"/><stop offset="0.485075" stop-color="#795A73"/><stop offset="0.492537" stop-color="#7A5A73"/><stop offset="0.5" stop-color="#7B5974"/><stop offset="0.507463" stop-color="#7C5975"/><stop offset="0.514925" stop-color="#7D5876"/><stop offset="0.522388" stop-color="#7E5877"/><stop offset="0.529851" stop-color="#7F5778"/><stop offset="0.537313" stop-color="#805778"/><stop offset="0.544776" stop-color="#815679"/><stop offset="0.552239" stop-color="#82557A"/><stop offset="0.559702" stop-color="#83557B"/><stop offset="0.567164" stop-color="#83547B"/><stop offset="0.574627" stop-color="#84547C"/><stop offset="0.58209" stop-color="#85537D"/><stop offset="0.589552" stop-color="#86537E"/><stop offset="0.597015" stop-color="#87527E"/><stop offset="0.604478" stop-color="#88527F"/><stop offset="0.61194" stop-color="#895180"/><stop offset="0.619403" stop-color="#895080"/><stop offset="0.626866" stop-color="#8A5081"/><stop offset="0.634328" stop-color="#8B4F82"/><stop offset="0.641791" stop-color="#8C4F82"/><stop offset="0.649254" stop-color="#8D4E83"/><stop offset="0.656716" stop-color="#8D4D84"/><stop offset="0.664179" stop-color="#8E4D84"/><stop offset="0.671642" stop-color="#8F4C85"/><stop offset="0.679105" stop-color="#8F4C85"/><stop offset="0.686567" stop-color="#904B86"/><stop offset="0.69403" stop-color="#914A86"/><stop offset="0.701493" stop-color="#924A87"/><stop offset="0.708955" stop-color="#924988"/><stop offset="0.716418" stop-color="#934888"/><stop offset="0.723881" stop-color="#934889"/><stop offset="0.731343" stop-color="#944789"/><stop offset="0.738806" stop-color="#95468A"/><stop offset="0.746269" stop-color="#95468A"/><stop offset="0.753731" stop-color="#96458A"/><stop offset="0.761194" stop-color="#96448B"/><stop offset="0.768657" stop-color="#97438B"/><stop offset="0.776119" stop-color="#97438C"/><stop offset="0.783582" stop-color="#98428C"/><stop offset="0.791045" stop-color="#98418D"/><stop offset="0.798507" stop-color="#99418D"/><stop offset="0.80597" stop-color="#99408D"/><stop offset="0.813433" stop-color="#9A3F8E"/><stop offset="0.820895" stop-color="#9A3E8E"/><stop offset="0.828358" stop-color="#9B3E8E"/><stop offset="0.835821" stop-color="#9B3D8F"/><stop offset="0.843284" stop-color="#9B3C8F"/><stop offset="0.850746" stop-color="#9C3B8F"/><stop offset="0.858209" stop-color="#9C3A90"/><stop offset="0.865672" stop-color="#9C3A90"/><stop offset="0.873134" stop-color="#9D3990"/><stop offset="0.880597" stop-color="#9D3890"/><stop offset="0.88806" stop-color="#9D3791"/><stop offset="0.895522" stop-color="#9E3691"/><stop offset="0.902985" stop-color="#9E3691"/><stop offset="0.910448" stop-color="#9E3591"/><stop offset="0.91791" stop-color="#9E3491"/><stop offset="0.925373" stop-color="#9E3392"/><stop offset="0.932836" stop-color="#9F3292"/><stop offset="0.940298" stop-color="#9F3192"/><stop offset="0.947761" stop-color="#9F3192"/><stop offset="0.955224" stop-color="#9F3092"/><stop offset="0.962687" stop-color="#9F2F92"/><stop offset="0.970149" stop-color="#9F2E92"/><stop offset="0.977612" stop-color="#9F2D92"/><stop offset="0.985075" stop-color="#9F2C92"/><stop offset="0.992537" stop-color="#9F2B92"/><stop offset="1" stop-color="#A02B93"/></linearGradient><linearGradient x1="134.898" y1="-10.3125" x2="134.898" y2="989.061" gradientUnits="userSpaceOnUse" spreadMethod="reflect" id="fill1"><stop offset="0" stop-color="#156082"/><stop offset="0.00724638" stop-color="#165F82"/><stop offset="0.0144928" stop-color="#185F82"/><stop offset="0.0217391" stop-color="#1A5F82"/><stop offset="0.0289855" stop-color="#1C5F82"/><stop offset="0.0362319" stop-color="#1E5F83"/><stop offset="0.0434783" stop-color="#205F83"/><stop offset="0.0507246" stop-color="#215F83"/><stop offset="0.057971" stop-color="#235F83"/><stop offset="0.0652174" stop-color="#255F84"/><stop offset="0.0724638" stop-color="#275F84"/><stop offset="0.0797101" stop-color="#295F84"/><stop offset="0.0869565" stop-color="#2A5F84"/><stop offset="0.0942029" stop-color="#2C5F84"/><stop offset="0.101449" stop-color="#2E5F85"/><stop offset="0.108696" stop-color="#2F5F85"/><stop offset="0.115942" stop-color="#315F85"/><stop offset="0.123188" stop-color="#335E85"/><stop offset="0.130435" stop-color="#355E85"/><stop offset="0.137681" stop-color="#365E86"/><stop offset="0.144928" stop-color="#385E86"/><stop offset="0.152174" stop-color="#3A5E86"/><stop offset="0.15942" stop-color="#3B5E86"/><stop offset="0.166667" stop-color="#3D5E86"/><stop offset="0.173913" stop-color="#3E5E87"/><stop offset="0.181159" stop-color="#405D87"/><stop offset="0.188406" stop-color="#425D87"/><stop offset="0.195652" stop-color="#435D87"/><stop offset="0.202899" stop-color="#455D87"/><stop offset="0.210145" stop-color="#465D88"/><stop offset="0.217391" stop-color="#485C88"/><stop offset="0.224638" stop-color="#495C88"/><stop offset="0.231884" stop-color="#4B5C88"/><stop offset="0.23913" stop-color="#4C5C88"/><stop offset="0.246377" stop-color="#4E5C88"/><stop offset="0.253623" stop-color="#4F5B89"/><stop offset="0.26087" stop-color="#515B89"/><stop offset="0.268116" stop-color="#525B89"/><stop offset="0.275362" stop-color="#545B89"/><stop offset="0.282609" stop-color="#555B89"/><stop offset="0.289855" stop-color="#565A8A"/><stop offset="0.297101" stop-color="#585A8A"/><stop offset="0.304348" stop-color="#595A8A"/><stop offset="0.311594" stop-color="#5A5A8A"/><stop offset="0.318841" stop-color="#5C598A"/><stop offset="0.326087" stop-color="#5D598A"/><stop offset="0.333333" stop-color="#5F598B"/><stop offset="0.34058" stop-color="#60588B"/><stop offset="0.347826" stop-color="#61588B"/><stop offset="0.355072" stop-color="#62588B"/><stop offset="0.362319" stop-color="#64588B"/><stop offset="0.369565" stop-color="#65578B"/><stop offset="0.376812" stop-color="#66578B"/><stop offset="0.384058" stop-color="#67578C"/><stop offset="0.391304" stop-color="#69568C"/><stop offset="0.398551" stop-color="#6A568C"/><stop offset="0.405797" stop-color="#6B568C"/><stop offset="0.413043" stop-color="#6C558C"/><stop offset="0.42029" stop-color="#6D558C"/><stop offset="0.427536" stop-color="#6F558D"/><stop offset="0.434783" stop-color="#70548D"/><stop offset="0.442029" stop-color="#71548D"/><stop offset="0.449275" stop-color="#72548D"/><stop offset="0.456522" stop-color="#73538D"/><stop offset="0.463768" stop-color="#74538D"/><stop offset="0.471014" stop-color="#75538D"/><stop offset="0.478261" stop-color="#76528D"/><stop offset="0.485507" stop-color="#78528E"/><stop offset="0.492754" stop-color="#79518E"/><stop offset="0.5" stop-color="#7A518E"/><stop offset="0.507246" stop-color="#7B518E"/><stop offset="0.514493" stop-color="#7C508E"/><stop offset="0.521739" stop-color="#7D508E"/><stop offset="0.528986" stop-color="#7E4F8E"/><stop offset="0.536232" stop-color="#7F4F8E"/><stop offset="0.543478" stop-color="#804F8F"/><stop offset="0.550725" stop-color="#804E8F"/><stop offset="0.557971" stop-color="#814E8F"/><stop offset="0.565217" stop-color="#824D8F"/><stop offset="0.572464" stop-color="#834D8F"/><stop offset="0.57971" stop-color="#844C8F"/><stop offset="0.586957" stop-color="#854C8F"/><stop offset="0.594203" stop-color="#864C8F"/><stop offset="0.601449" stop-color="#874B8F"/><stop offset="0.608696" stop-color="#884B90"/><stop offset="0.615942" stop-color="#884A90"/><stop offset="0.623188" stop-color="#894A90"/><stop offset="0.630435" stop-color="#8A4990"/><stop offset="0.637681" stop-color="#8B4990"/><stop offset="0.644928" stop-color="#8C4890"/><stop offset="0.652174" stop-color="#8C4890"/><stop offset="0.65942" stop-color="#8D4790"/><stop offset="0.666667" stop-color="#8E4790"/><stop offset="0.673913" stop-color="#8E4690"/><stop offset="0.681159" stop-color="#8F4691"/><stop offset="0.688406" stop-color="#904591"/><stop offset="0.695652" stop-color="#914591"/><stop offset="0.702899" stop-color="#914491"/><stop offset="0.710145" stop-color="#924491"/><stop offset="0.717391" stop-color="#924391"/><stop offset="0.724638" stop-color="#934391"/><stop offset="0.731884" stop-color="#944291"/><stop offset="0.73913" stop-color="#944191"/><stop offset="0.746377" stop-color="#954191"/><stop offset="0.753623" stop-color="#954091"/><stop offset="0.76087" stop-color="#964091"/><stop offset="0.768116" stop-color="#973F91"/><stop offset="0.775362" stop-color="#973F91"/><stop offset="0.782609" stop-color="#983E92"/><stop offset="0.789855" stop-color="#983D92"/><stop offset="0.797101" stop-color="#993D92"/><stop offset="0.804348" stop-color="#993C92"/><stop offset="0.811594" stop-color="#993C92"/><stop offset="0.818841" stop-color="#9A3B92"/><stop offset="0.826087" stop-color="#9A3A92"/><stop offset="0.833333" stop-color="#9B3A92"/><stop offset="0.84058" stop-color="#9B3992"/><stop offset="0.847826" stop-color="#9B3992"/><stop offset="0.855072" stop-color="#9C3892"/><stop offset="0.862319" stop-color="#9C3792"/><stop offset="0.869565" stop-color="#9C3792"/><stop offset="0.876812" stop-color="#9D3692"/><stop offset="0.884058" stop-color="#9D3592"/><stop offset="0.891304" stop-color="#9D3592"/><stop offset="0.898551" stop-color="#9E3492"/><stop offset="0.905797" stop-color="#9E3392"/><stop offset="0.913043" stop-color="#9E3392"/><stop offset="0.92029" stop-color="#9E3292"/><stop offset="0.927536" stop-color="#9E3192"/><stop offset="0.934783" stop-color="#9F3192"/><stop offset="0.942029" stop-color="#9F3092"/><stop offset="0.949275" stop-color="#9F2F92"/><stop offset="0.956522" stop-color="#9F2F92"/><stop offset="0.963768" stop-color="#9F2E92"/><stop offset="0.971014" stop-color="#9F2D92"/><stop offset="0.978261" stop-color="#9F2D92"/><stop offset="0.985507" stop-color="#9F2C92"/><stop offset="0.992754" stop-color="#9F2B92"/><stop offset="1" stop-color="#A02B93"/></linearGradient></defs><g transform="translate(-289 -252)"><path d="M382.5 1682.33C382.5 1652.05 493.31 1627.5 630 1627.5 766.691 1627.5 877.5 1652.05 877.5 1682.33L877.5 1901.67C877.5 1931.95 766.691 1956.5 630 1956.5 493.31 1956.5 382.5 1931.95 382.5 1901.67Z" fill="#196B24" fill-rule="evenodd"/><path d="M877.5 1682.33C877.5 1712.62 766.691 1737.17 630 1737.17 493.31 1737.17 382.5 1712.62 382.5 1682.33" stroke="#052909" stroke-width="6.875" stroke-miterlimit="8" fill="none" fill-rule="evenodd"/><path d="M382.5 1682.33C382.5 1652.05 493.31 1627.5 630 1627.5 766.691 1627.5 877.5 1652.05 877.5 1682.33L877.5 1901.67C877.5 1931.95 766.691 1956.5 630 1956.5 493.31 1956.5 382.5 1931.95 382.5 1901.67Z" stroke="#052909" stroke-width="6.875" stroke-miterlimit="8" fill="none" fill-rule="evenodd"/><text fill="#FFFFFF" font-family="Aptos,Aptos_MSFontService,sans-serif" font-weight="400" font-size="73" transform="matrix(1 0 0 1 517.741 1842)">GISAID</text><path d="M966.5 1682.33C966.5 1652.05 1077.31 1627.5 1214 1627.5 1350.69 1627.5 1461.5 1652.05 1461.5 1682.33L1461.5 1901.67C1461.5 1931.95 1350.69 1956.5 1214 1956.5 1077.31 1956.5 966.5 1931.95 966.5 1901.67Z" fill="#156082" fill-rule="evenodd"/><path d="M1461.5 1682.33C1461.5 1712.62 1350.69 1737.17 1214 1737.17 1077.31 1737.17 966.5 1712.62 966.5 1682.33" stroke="#042433" stroke-width="6.875" stroke-miterlimit="8" fill="none" fill-rule="evenodd"/><path d="M966.5 1682.33C966.5 1652.05 1077.31 1627.5 1214 1627.5 1350.69 1627.5 1461.5 1652.05 1461.5 1682.33L1461.5 1901.67C1461.5 1931.95 1350.69 1956.5 1214 1956.5 1077.31 1956.5 966.5 1931.95 966.5 1901.67Z" stroke="#042433" stroke-width="6.875" stroke-miterlimit="8" fill="none" fill-rule="evenodd"/><text fill="#FFFFFF" font-family="Aptos,Aptos_MSFontService,sans-serif" font-weight="400" font-size="73" transform="matrix(1 0 0 1 1100.1 1798)">Protein</text><text fill="#FFFFFF" font-family="Aptos,Aptos_MSFontService,sans-serif" font-weight="400" font-size="73" transform="matrix(1 0 0 1 1050.57 1886)">Data Bank</text><path d="M390.5 286.755C390.5 269.493 404.493 255.5 421.755 255.5L1430.25 255.5C1447.51 255.5 1461.5 269.493 1461.5 286.755L1461.5 1091.24C1461.5 1108.51 1447.51 1122.5 1430.25 1122.5L421.755 1122.5C404.493 1122.5 390.5 1108.51 390.5 1091.24Z" stroke="#000000" stroke-width="6.875" stroke-miterlimit="8" stroke-dasharray="27.5 20.625" fill="none" fill-rule="evenodd"/><text font-family="Aptos,Aptos_MSFontService,sans-serif" font-weight="400" font-size="83" transform="matrix(1 0 0 1 432.431 356)">Sequence Collection</text><rect x="536.5" y="750.5" width="779" height="100" stroke="#052909" stroke-width="6.875" stroke-miterlimit="8" fill="#196B24"/><text fill="#FFFFFF" font-family="Aptos,Aptos_MSFontService,sans-serif" font-weight="400" font-size="83" transform="matrix(1 0 0 1 682.829 827)">Get Metadata</text><rect x="536.5" y="460.5" width="779" height="99" stroke="#052909" stroke-width="6.875" stroke-miterlimit="8" fill="#196B24"/><text fill="#FFFFFF" font-family="Aptos,Aptos_MSFontService,sans-serif" font-weight="400" font-size="83" transform="matrix(1 0 0 1 716.184 536)">Run </text><text fill="#FFFFFF" font-family="Aptos,Aptos_MSFontService,sans-serif" font-style="italic" font-weight="400" font-size="83" transform="matrix(1 0 0 1 873.828 536)">CD</text><text fill="#FFFFFF" font-family="Aptos,Aptos_MSFontService,sans-serif" font-style="italic" font-weight="400" font-size="83" transform="matrix(1 0 0 1 987.838 536)">-</text><text fill="#FFFFFF" font-family="Aptos,Aptos_MSFontService,sans-serif" font-style="italic" font-weight="400" font-size="83" transform="matrix(1 0 0 1 1015.91 536)">HIT</text><rect x="536.5" y="605.5" width="779" height="100" stroke="#052909" stroke-width="6.875" stroke-miterlimit="8" fill="#196B24"/><text fill="#FFFFFF" font-family="Aptos,Aptos_MSFontService,sans-serif" font-weight="400" font-size="83" transform="matrix(1 0 0 1 627.967 681)">Filter Sequences</text><rect x="536.5" y="895.5" width="779" height="100" stroke="#052909" stroke-width="6.875" stroke-miterlimit="8" fill="#196B24"/><text fill="#FFFFFF" font-family="Aptos,Aptos_MSFontService,sans-serif" font-weight="400" font-size="83" transform="matrix(1 0 0 1 641.602 972)">Trim Sequences</text><path d="M390.5 1237.36C390.5 1230.81 395.81 1225.5 402.36 1225.5L1449.64 1225.5C1456.19 1225.5 1461.5 1230.81 1461.5 1237.36L1461.5 1542.64C1461.5 1549.19 1456.19 1554.5 1449.64 1554.5L402.36 1554.5C395.81 1554.5 390.5 1549.19 390.5 1542.64Z" stroke="#000000" stroke-width="6.875" stroke-miterlimit="8" stroke-dasharray="27.5 20.625" fill="none" fill-rule="evenodd"/><text font-family="Aptos,Aptos_MSFontService,sans-serif" font-weight="400" font-size="83" transform="matrix(1 0 0 1 426.745 1321)">Structure Generation</text><rect x="534.5" y="1389.5" width="779" height="100" stroke="#052909" stroke-width="6.875" stroke-miterlimit="8" fill="#196B24"/><text fill="#FFFFFF" font-family="Aptos,Aptos_MSFontService,sans-serif" font-weight="400" font-size="83" transform="matrix(1 0 0 1 659.133 1466)">Run </text><text fill="#FFFFFF" font-family="Aptos,Aptos_MSFontService,sans-serif" font-style="italic" font-weight="400" font-size="83" transform="matrix(1 0 0 1 816.777 1466)">ColabFold</text><path d="M1669.5 283.872C1669.5 268.202 1682.2 255.5 1697.87 255.5L2711.13 255.5C2726.8 255.5 2739.5 268.202 2739.5 283.872L2739.5 1014.13C2739.5 1029.8 2726.8 1042.5 2711.13 1042.5L1697.87 1042.5C1682.2 1042.5 1669.5 1029.8 1669.5 1014.13Z" stroke="#000000" stroke-width="6.875" stroke-miterlimit="8" stroke-dasharray="27.5 20.625" fill="none" fill-rule="evenodd"/><text font-family="Aptos,Aptos_MSFontService,sans-serif" font-weight="400" font-size="83" transform="matrix(1 0 0 1 1709.84 356)">Structure Preparation</text><text font-family="Aptos,Aptos_MSFontService,sans-serif" font-weight="400" font-size="64" transform="matrix(1 0 0 1 1709.84 438)">(Antigens)</text><path d="M938.395 1125.65 937.631 1176.95 917.008 1176.65 917.772 1125.35ZM958.936 1168.81 923.5 1228.22 897.231 1164.23Z" fill="#196B24"/><rect x="1815.5" y="518.5" width="778" height="199" stroke="#052909" stroke-width="6.875" stroke-miterlimit="8" fill="#196B24"/><text fill="#FFFFFF" font-family="Aptos,Aptos_MSFontService,sans-serif" font-weight="400" font-size="83" transform="matrix(1 0 0 1 2003.66 594)">Renumber/</text><text fill="#FFFFFF" font-family="Aptos,Aptos_MSFontService,sans-serif" font-weight="400" font-size="83" transform="matrix(1 0 0 1 1952.95 693)">Rechain PDBs</text><rect x="1815.5" y="778.5" width="778" height="198" stroke="#052909" stroke-width="6.875" stroke-miterlimit="8" fill="#196B24"/><text fill="#FFFFFF" font-family="Aptos,Aptos_MSFontService,sans-serif" font-weight="400" font-size="83" transform="matrix(1 0 0 1 1967.92 854)">Find </text><text fill="#FFFFFF" font-family="Aptos,Aptos_MSFontService,sans-serif" font-weight="400" font-size="83" transform="matrix(1 0 0 1 2137.99 854)">Random </text><text fill="#FFFFFF" font-family="Aptos,Aptos_MSFontService,sans-serif" font-weight="400" font-size="83" transform="matrix(1 0 0 1 1894.11 953)">Surface </text><text fill="#FFFFFF" font-family="Aptos,Aptos_MSFontService,sans-serif" font-weight="400" font-size="83" transform="matrix(1 0 0 1 2184.81 953)">Residues</text><path d="M1669.5 1193.17C1669.5 1176.78 1682.78 1163.5 1699.17 1163.5L2709.83 1163.5C2726.22 1163.5 2739.5 1176.78 2739.5 1193.17L2739.5 1956.83C2739.5 1973.22 2726.22 1986.5 2709.83 1986.5L1699.17 1986.5C1682.78 1986.5 1669.5 1973.22 1669.5 1956.83Z" stroke="#000000" stroke-width="6.875" stroke-miterlimit="8" stroke-dasharray="27.5 20.625" fill="none" fill-rule="evenodd"/><text font-family="Aptos,Aptos_MSFontService,sans-serif" font-weight="400" font-size="83" transform="matrix(1 0 0 1 1710.21 1264)">Structure Preparation</text><text font-family="Aptos,Aptos_MSFontService,sans-serif" font-weight="400" font-size="64" transform="matrix(1 0 0 1 1710.21 1346)">(Antibodies)</text><rect x="1817.5" y="1455.5" width="779" height="198" stroke="#042433" stroke-width="6.875" stroke-miterlimit="8" fill="#156082"/><text fill="#FFFFFF" font-family="Aptos,Aptos_MSFontService,sans-serif" font-weight="400" font-size="83" transform="matrix(1 0 0 1 2005.95 1531)">Renumber/</text><text fill="#FFFFFF" font-family="Aptos,Aptos_MSFontService,sans-serif" font-weight="400" font-size="83" transform="matrix(1 0 0 1 1955.24 1630)">Rechain PDBs</text><rect x="1817.5" y="1703.5" width="779" height="198" stroke="#042433" stroke-width="6.875" stroke-miterlimit="8" fill="#156082"/><text fill="#FFFFFF" font-family="Aptos,Aptos_MSFontService,sans-serif" font-weight="400" font-size="83" transform="matrix(1 0 0 1 1941.72 1779)">Find CDR Loop </text><text fill="#FFFFFF" font-family="Aptos,Aptos_MSFontService,sans-serif" font-weight="400" font-size="83" transform="matrix(1 0 0 1 2041.75 1878)">Residues</text><path d="M0 10.3125-61.875 10.3125-61.875-10.3125 0-10.3125ZM-92.8125 0-92.8125 61.875-72.1875 61.875-72.1875 0ZM-72.1875 82.5-72.1875 144.375-92.8125 144.375-92.8125 82.5ZM-72.1875 165-72.1875 226.875-92.8125 226.875-92.8125 165ZM-72.1875 247.5-72.1875 309.375-92.8125 309.375-92.8125 247.5ZM-72.1875 330-72.1875 391.875-92.8125 391.875-92.8125 330ZM-72.1875 412.5-72.1875 474.375-92.8125 474.375-92.8125 412.5ZM-72.1875 495-72.1875 556.875-92.8125 556.875-92.8125 495ZM-72.1875 577.5-72.1875 639.375-92.8125 639.375-92.8125 577.5ZM-72.1875 660-72.1875 721.875-92.8125 721.875-92.8125 660ZM-72.1875 742.5-72.1875 804.375-92.8125 804.375-92.8125 742.5ZM-72.1875 825-72.1875 886.875-92.8125 886.875-92.8125 825ZM-72.1875 907.5-72.1875 969.375-92.8125 969.375-92.8125 907.5ZM-72.1875 990-72.1875 1051.88-92.8125 1051.88-92.8125 990ZM-72.1875 1072.5-72.1875 1102.5-82.5 1092.18-50.6206 1092.18-50.6206 1112.81-92.8125 1112.81-92.8125 1072.5ZM-54.1017 1071.56 7.77326 1102.5-54.1017 1133.43Z" fill="#196B24" transform="matrix(1 -1.22465e-16 -1.22465e-16 -1 382.5 1792)"/><path d="M0-10.3125 61.875-10.3125 61.875 10.3125 0 10.3125ZM82.5-10.3125 114.292-10.3125 114.292 40.395 93.6674 40.395 93.6674 0 103.98 10.3125 82.5 10.3125ZM114.292 61.02 114.292 122.895 93.6674 122.895 93.6674 61.02ZM114.292 143.52 114.292 205.395 93.6674 205.395 93.6674 143.52ZM113.411 206.276 156.397 206.276 156.397 226.901 113.411 226.901ZM146.085 185.651 207.96 216.589 146.085 247.526Z" fill="#156082" transform="matrix(1 0 0 -1 1461.5 1791.09)"/><path d="M2947.5 283.835C2947.5 268.186 2960.19 255.5 2975.84 255.5L3990.17 255.5C4005.81 255.5 4018.5 268.186 4018.5 283.835L4018.5 1013.16C4018.5 1028.81 4005.81 1041.5 3990.17 1041.5L2975.84 1041.5C2960.19 1041.5 2947.5 1028.81 2947.5 1013.16Z" stroke="#000000" stroke-width="6.875" stroke-miterlimit="8" stroke-dasharray="27.5 20.625" fill="none" fill-rule="evenodd"/><text font-family="Aptos,Aptos_MSFontService,sans-serif" font-weight="400" font-size="83" transform="matrix(1 0 0 1 2988.08 356)">Experiment Generation</text><text font-family="Aptos,Aptos_MSFontService,sans-serif" font-style="italic" font-weight="400" font-size="64" transform="matrix(1 0 0 1 2988.08 438)">(n=1,804)</text><rect x="3090.5" y="518.5" width="779" height="199" stroke="#410C3B" stroke-width="6.875" stroke-miterlimit="8" fill="#A02B93"/><text fill="#FFFFFF" font-family="Aptos,Aptos_MSFontService,sans-serif" font-weight="400" font-size="83" transform="matrix(1 0 0 1 3173.18 594)">Make Experiment </text><text fill="#FFFFFF" font-family="Aptos,Aptos_MSFontService,sans-serif" font-weight="400" font-size="83" transform="matrix(1 0 0 1 3179.18 693)">Folders and Files</text><rect x="3095.5" y="776.5" width="779" height="199" stroke="#410C3B" stroke-width="6.875" stroke-miterlimit="8" fill="#A02B93"/><text fill="#FFFFFF" font-family="Aptos,Aptos_MSFontService,sans-serif" font-weight="400" font-size="83" transform="matrix(1 0 0 1 3319.8 852)">Generate </text><text fill="#FFFFFF" font-family="Aptos,Aptos_MSFontService,sans-serif" font-weight="400" font-size="83" transform="matrix(1 0 0 1 3157.3 951)">Experiment Config</text><path d="M0-10.3125 114.08-10.3125 114.08 0.655381 103.767-9.65712 155.972-9.65712 155.972 10.9679 93.4549 10.9679 93.4549 0 103.767 10.3125 0 10.3125ZM145.66-30.2821 207.535 0.655381 145.66 31.5929Z" fill="url(#fill0)" transform="matrix(1 0 0 -1 2739.5 649.156)"/><path d="M2947.5 1474.64C2947.5 1464.07 2956.07 1455.5 2966.64 1455.5L3999.36 1455.5C4009.93 1455.5 4018.5 1464.07 4018.5 1474.64L4018.5 1967.36C4018.5 1977.93 4009.93 1986.5 3999.36 1986.5L2966.64 1986.5C2956.07 1986.5 2947.5 1977.93 2947.5 1967.36Z" stroke="#000000" stroke-width="6.875" stroke-miterlimit="8" stroke-dasharray="27.5 20.625" fill="none" fill-rule="evenodd"/><text font-family="Aptos,Aptos_MSFontService,sans-serif" font-weight="400" font-size="83" transform="matrix(1 0 0 1 2985.39 1553)">Metrics Collection</text><rect x="3093.5" y="1574.5" width="778" height="326" stroke="#410C3B" stroke-width="6.875" stroke-miterlimit="8" fill="#A02B93"/><text fill="#FFFFFF" font-family="Aptos,Aptos_MSFontService,sans-serif" font-weight="400" font-size="83" transform="matrix(1 0 0 1 3264.37 1664)">Collect Best </text><text fill="#FFFFFF" font-family="Aptos,Aptos_MSFontService,sans-serif" font-weight="400" font-size="83" transform="matrix(1 0 0 1 3133.68 1763)">Cluster Metrics and </text><text fill="#FFFFFF" font-family="Aptos,Aptos_MSFontService,sans-serif" font-weight="400" font-size="83" transform="matrix(1 0 0 1 3230.32 1862)">PDB Structure</text><path d="M3513.44 1041.45 3482.5 1103.32 3451.56 1041.45Z" fill="#A02B93"/><path d="M0-10.3125 114.08-10.3125 114.08 741.197 103.768 730.885 155.972 730.885 155.972 751.51 93.4553 751.51 93.4553 0 103.768 10.3125 0 10.3125ZM145.66 710.26 207.535 741.197 145.66 772.135Z" fill="#196B24" transform="matrix(1 0 0 -1 1461.5 1389.7)"/><path d="M2947.5 1112.99C2947.5 1107.2 2952.2 1102.5 2957.99 1102.5L4007.01 1102.5C4012.8 1102.5 4017.5 1107.2 4017.5 1112.99L4017.5 1383.01C4017.5 1388.8 4012.8 1393.5 4007.01 1393.5L2957.99 1393.5C2952.2 1393.5 2947.5 1388.8 2947.5 1383.01Z" stroke="#000000" stroke-width="6.875" stroke-miterlimit="8" stroke-dasharray="27.5 20.625" fill="none" fill-rule="evenodd"/><text font-family="Aptos,Aptos_MSFontService,sans-serif" font-weight="400" font-size="83" transform="matrix(1 0 0 1 2982.85 1198)">Experiment Submission</text><path d="M-0.0528707-30.9375 61.8212 0.00180446-0.0546752 30.9375Z" fill="#A02B93" transform="matrix(1.83697e-16 1 1 -1.83697e-16 3482.5 1393.5)"/><rect x="3095.5" y="1238.5" width="779" height="99" stroke="#410C3B" stroke-width="6.875" stroke-miterlimit="8" fill="#A02B93"/><text fill="#FFFFFF" font-family="Aptos,Aptos_MSFontService,sans-serif" font-weight="400" font-size="83" transform="matrix(1 0 0 1 3191.34 1314)">Run </text><text fill="#FFFFFF" font-family="Aptos,Aptos_MSFontService,sans-serif" font-style="italic" font-weight="400" font-size="83" transform="matrix(1 0 0 1 3348.98 1314)">HADDOCK3</text><text font-family="Aptos,Aptos_MSFontService,sans-serif" font-weight="400" font-size="50" transform="matrix(1 0 0 1 509.124 2041)">Influenza A</text><text font-family="Aptos,Aptos_MSFontService,sans-serif" font-weight="400" font-size="50" transform="matrix(1 0 0 1 457.263 2101)">HA1 Sequences</text><text font-family="Aptos,Aptos_MSFontService,sans-serif" font-style="italic" font-weight="400" font-size="50" transform="matrix(1 0 0 1 547.211 2162)">(n=164)</text><text font-family="Aptos,Aptos_MSFontService,sans-serif" font-weight="400" font-size="50" transform="matrix(1 0 0 1 1036.32 2041)">Anti</text><text font-family="Aptos,Aptos_MSFontService,sans-serif" font-weight="400" font-size="50" transform="matrix(1 0 0 1 1122.26 2041)">-</text><text font-family="Aptos,Aptos_MSFontService,sans-serif" font-weight="400" font-size="50" transform="matrix(1 0 0 1 1139.45 2041)">HA1 Fab/</text><text font-family="Aptos,Aptos_MSFontService,sans-serif" font-weight="400" font-size="50" transform="matrix(1 0 0 1 1340.54 2041)">Fv</text><text font-family="Aptos,Aptos_MSFontService,sans-serif" font-weight="400" font-size="50" transform="matrix(1 0 0 1 1099.34 2101)">Structures</text><text font-family="Aptos,Aptos_MSFontService,sans-serif" font-style="italic" font-weight="400" font-size="50" transform="matrix(1 0 0 1 1143.75 2162)">(n=11)</text><path d="M0-10.3125 114.081-10.3125 114.081 926.801 103.769 916.488 155.974 916.488 155.974 937.113 93.4561 937.113 93.4561 0 103.769 10.3125 0 10.3125ZM145.661 895.863 207.536 926.801 145.661 957.738Z" fill="url(#fill1)" transform="matrix(1 0 0 -1 2739.5 1575.3)"/></g></svg>