<svg width="3733" height="1955" xmlns="http://www.w3.org/2000/svg" xmlns:xlink="http://www.w3.org/1999/xlink" xml:space="preserve" overflow="hidden"><defs><linearGradient x1="0" y1="0.655381" x2="269.795" y2="0.655381" gradientUnits="userSpaceOnUse" spreadMethod="reflect" id="fill0"><stop offset="0" stop-color="#005035"/><stop offset="0.27" stop-color="#A49665"/><stop offset="1" stop-color="#A49665"/></linearGradient><linearGradient x1="134.898" y1="-10.3125" x2="134.898" y2="989.061" gradientUnits="userSpaceOnUse" spreadMethod="reflect" id="fill1"><stop offset="0" stop-color="#007377"/><stop offset="0.00613497" stop-color="#017376"/><stop offset="0.0122699" stop-color="#037376"/><stop offset="0.0184049" stop-color="#057476"/><stop offset="0.0245399" stop-color="#077476"/><stop offset="0.0306748" stop-color="#097476"/><stop offset="0.0368098" stop-color="#0B7576"/><stop offset="0.0429448" stop-color="#0C7576"/><stop offset="0.0490798" stop-color="#0E7676"/><stop offset="0.0552147" stop-color="#107676"/><stop offset="0.0613497" stop-color="#127676"/><stop offset="0.0674847" stop-color="#147776"/><stop offset="0.0736196" stop-color="#157776"/><stop offset="0.0797546" stop-color="#177876"/><stop offset="0.0858896" stop-color="#197876"/><stop offset="0.0920245" stop-color="#1B7876"/><stop offset="0.0981595" stop-color="#1C7976"/><stop offset="0.104294" stop-color="#1E7976"/><stop offset="0.110429" stop-color="#207976"/><stop offset="0.116564" stop-color="#227A76"/><stop offset="0.122699" stop-color="#237A76"/><stop offset="0.128834" stop-color="#257A76"/><stop offset="0.134969" stop-color="#277B76"/><stop offset="0.141104" stop-color="#287B76"/><stop offset="0.147239" stop-color="#2A7C76"/><stop offset="0.153374" stop-color="#2B7C76"/><stop offset="0.159509" stop-color="#2D7C76"/><stop offset="0.165644" stop-color="#2F7D76"/><stop offset="0.171779" stop-color="#307D76"/><stop offset="0.177914" stop-color="#327D76"/><stop offset="0.184049" stop-color="#347E76"/><stop offset="0.190184" stop-color="#357E76"/><stop offset="0.196319" stop-color="#377E76"/><stop offset="0.202454" stop-color="#387F76"/><stop offset="0.208589" stop-color="#3A7F76"/><stop offset="0.214724" stop-color="#3B7F75"/><stop offset="0.220859" stop-color="#3D8075"/><stop offset="0.226994" stop-color="#3E8075"/><stop offset="0.233129" stop-color="#408075"/><stop offset="0.239264" stop-color="#418175"/><stop offset="0.245399" stop-color="#438175"/><stop offset="0.251534" stop-color="#448175"/><stop offset="0.257669" stop-color="#468175"/><stop offset="0.263804" stop-color="#478275"/><stop offset="0.269939" stop-color="#498275"/><stop offset="0.276074" stop-color="#4A8275"/><stop offset="0.282209" stop-color="#4B8375"/><stop offset="0.288344" stop-color="#4D8375"/><stop offset="0.294479" stop-color="#4E8375"/><stop offset="0.300613" stop-color="#508475"/><stop offset="0.306748" stop-color="#518475"/><stop offset="0.312883" stop-color="#528474"/><stop offset="0.319018" stop-color="#548474"/><stop offset="0.325153" stop-color="#558574"/><stop offset="0.331288" stop-color="#568574"/><stop offset="0.337423" stop-color="#588574"/><stop offset="0.343558" stop-color="#598674"/><stop offset="0.349693" stop-color="#5A8674"/><stop offset="0.355828" stop-color="#5C8674"/><stop offset="0.361963" stop-color="#5D8674"/><stop offset="0.368098" stop-color="#5E8774"/><stop offset="0.374233" stop-color="#5F8774"/><stop offset="0.380368" stop-color="#618774"/><stop offset="0.386503" stop-color="#628773"/><stop offset="0.392638" stop-color="#638873"/><stop offset="0.398773" stop-color="#648873"/><stop offset="0.404908" stop-color="#668873"/><stop offset="0.411043" stop-color="#678973"/><stop offset="0.417178" stop-color="#688973"/><stop offset="0.423313" stop-color="#698973"/><stop offset="0.429448" stop-color="#6A8973"/><stop offset="0.435583" stop-color="#6B8A73"/><stop offset="0.441718" stop-color="#6D8A73"/><stop offset="0.447853" stop-color="#6E8A73"/><stop offset="0.453988" stop-color="#6F8A72"/><stop offset="0.460123" stop-color="#708A72"/><stop offset="0.466258" stop-color="#718B72"/><stop offset="0.472393" stop-color="#728B72"/><stop offset="0.478528" stop-color="#738B72"/><stop offset="0.484663" stop-color="#748B72"/><stop offset="0.490798" stop-color="#758C72"/><stop offset="0.496933" stop-color="#768C72"/><stop offset="0.503067" stop-color="#778C72"/><stop offset="0.509202" stop-color="#788C71"/><stop offset="0.515337" stop-color="#798C71"/><stop offset="0.521472" stop-color="#7A8D71"/><stop offset="0.527607" stop-color="#7B8D71"/><stop offset="0.533742" stop-color="#7C8D71"/><stop offset="0.539877" stop-color="#7D8D71"/><stop offset="0.546012" stop-color="#7E8E71"/><stop offset="0.552147" stop-color="#7F8E71"/><stop offset="0.558282" stop-color="#808E70"/><stop offset="0.564417" stop-color="#818E70"/><stop offset="0.570552" stop-color="#828E70"/><stop offset="0.576687" stop-color="#838F70"/><stop offset="0.582822" stop-color="#848F70"/><stop offset="0.588957" stop-color="#858F70"/><stop offset="0.595092" stop-color="#858F70"/><stop offset="0.601227" stop-color="#868F70"/><stop offset="0.607362" stop-color="#878F6F"/><stop offset="0.613497" stop-color="#88906F"/><stop offset="0.619632" stop-color="#89906F"/><stop offset="0.625767" stop-color="#8A906F"/><stop offset="0.631902" stop-color="#8A906F"/><stop offset="0.638037" stop-color="#8B906F"/><stop offset="0.644172" stop-color="#8C906F"/><stop offset="0.650307" stop-color="#8D916E"/><stop offset="0.656442" stop-color="#8D916E"/><stop offset="0.662577" stop-color="#8E916E"/><stop offset="0.668712" stop-color="#8F916E"/><stop offset="0.674847" stop-color="#90916E"/><stop offset="0.680982" stop-color="#90916E"/><stop offset="0.687117" stop-color="#91926E"/><stop offset="0.693252" stop-color="#92926D"/><stop offset="0.699386" stop-color="#92926D"/><stop offset="0.705521" stop-color="#93926D"/><stop offset="0.711656" stop-color="#94926D"/><stop offset="0.717791" stop-color="#94926D"/><stop offset="0.723926" stop-color="#95926D"/><stop offset="0.730061" stop-color="#95926D"/><stop offset="0.736196" stop-color="#96936C"/><stop offset="0.742331" stop-color="#97936C"/><stop offset="0.748466" stop-color="#97936C"/><stop offset="0.754601" stop-color="#98936C"/><stop offset="0.760736" stop-color="#98936C"/><stop offset="0.766871" stop-color="#99936C"/><stop offset="0.773006" stop-color="#99936B"/><stop offset="0.779141" stop-color="#9A936B"/><stop offset="0.785276" stop-color="#9A946B"/><stop offset="0.791411" stop-color="#9B946B"/><stop offset="0.797546" stop-color="#9B946B"/><stop offset="0.803681" stop-color="#9C946B"/><stop offset="0.809816" stop-color="#9C946A"/><stop offset="0.815951" stop-color="#9D946A"/><stop offset="0.822086" stop-color="#9D946A"/><stop offset="0.828221" stop-color="#9D946A"/><stop offset="0.834356" stop-color="#9E946A"/><stop offset="0.840491" stop-color="#9E946A"/><stop offset="0.846626" stop-color="#9F9469"/><stop offset="0.852761" stop-color="#9F9569"/><stop offset="0.858896" stop-color="#9F9569"/><stop offset="0.865031" stop-color="#A09569"/><stop offset="0.871166" stop-color="#A09569"/><stop offset="0.877301" stop-color="#A09568"/><stop offset="0.883436" stop-color="#A19568"/><stop offset="0.889571" stop-color="#A19568"/><stop offset="0.895706" stop-color="#A19568"/><stop offset="0.901841" stop-color="#A19568"/><stop offset="0.907975" stop-color="#A29567"/><stop offset="0.91411" stop-color="#A29567"/><stop offset="0.920245" stop-color="#A29567"/><stop offset="0.92638" stop-color="#A29567"/><stop offset="0.932515" stop-color="#A29567"/><stop offset="0.93865" stop-color="#A39567"/><stop offset="0.944785" stop-color="#A39566"/><stop offset="0.95092" stop-color="#A39566"/><stop offset="0.957055" stop-color="#A39566"/><stop offset="0.96319" stop-color="#A39566"/><stop offset="0.969325" stop-color="#A39566"/><stop offset="0.97546" stop-color="#A39565"/><stop offset="0.981595" stop-color="#A39565"/><stop offset="0.98773" stop-color="#A39565"/><stop offset="0.993865" stop-color="#A39565"/><stop offset="1" stop-color="#A49665"/></linearGradient></defs><g transform="translate(-289 -252)"><path d="M382.5 1682.33C382.5 1652.05 493.31 1627.5 630 1627.5 766.691 1627.5 877.5 1652.05 877.5 1682.33L877.5 1901.67C877.5 1931.95 766.691 1956.5 630 1956.5 493.31 1956.5 382.5 1931.95 382.5 1901.67Z" fill="#005035" fill-rule="evenodd"/><path d="M877.5 1682.33C877.5 1712.62 766.691 1737.17 630 1737.17 493.31 1737.17 382.5 1712.62 382.5 1682.33" stroke="#052909" stroke-width="6.875" stroke-miterlimit="8" fill="none" fill-rule="evenodd"/><path d="M382.5 1682.33C382.5 1652.05 493.31 1627.5 630 1627.5 766.691 1627.5 877.5 1652.05 877.5 1682.33L877.5 1901.67C877.5 1931.95 766.691 1956.5 630 1956.5 493.31 1956.5 382.5 1931.95 382.5 1901.67Z" stroke="#052909" stroke-width="6.875" stroke-miterlimit="8" fill="none" fill-rule="evenodd"/><text fill="#FFFFFF" font-family="Aptos,Aptos_MSFontService,sans-serif" font-weight="400" font-size="73" transform="matrix(1 0 0 1 517.741 1842)">GISAID</text><path d="M966.5 1682.33C966.5 1652.05 1077.31 1627.5 1214 1627.5 1350.69 1627.5 1461.5 1652.05 1461.5 1682.33L1461.5 1901.67C1461.5 1931.95 1350.69 1956.5 1214 1956.5 1077.31 1956.5 966.5 1931.95 966.5 1901.67Z" fill="#007377" fill-rule="evenodd"/><path d="M1461.5 1682.33C1461.5 1712.62 1350.69 1737.17 1214 1737.17 1077.31 1737.17 966.5 1712.62 966.5 1682.33" stroke="#042433" stroke-width="6.875" stroke-miterlimit="8" fill="none" fill-rule="evenodd"/><path d="M966.5 1682.33C966.5 1652.05 1077.31 1627.5 1214 1627.5 1350.69 1627.5 1461.5 1652.05 1461.5 1682.33L1461.5 1901.67C1461.5 1931.95 1350.69 1956.5 1214 1956.5 1077.31 1956.5 966.5 1931.95 966.5 1901.67Z" stroke="#042433" stroke-width="6.875" stroke-miterlimit="8" fill="none" fill-rule="evenodd"/><text fill="#FFFFFF" font-family="Aptos,Aptos_MSFontService,sans-serif" font-weight="400" font-size="73" transform="matrix(1 0 0 1 1100.1 1798)">Protein</text><text fill="#FFFFFF" font-family="Aptos,Aptos_MSFontService,sans-serif" font-weight="400" font-size="73" transform="matrix(1 0 0 1 1050.57 1886)">Data Bank</text><path d="M390.5 286.755C390.5 269.493 404.493 255.5 421.755 255.5L1430.25 255.5C1447.51 255.5 1461.5 269.493 1461.5 286.755L1461.5 1091.24C1461.5 1108.51 1447.51 1122.5 1430.25 1122.5L421.755 1122.5C404.493 1122.5 390.5 1108.51 390.5 1091.24Z" stroke="#000000" stroke-width="6.875" stroke-miterlimit="8" stroke-dasharray="27.5 20.625" fill="none" fill-rule="evenodd"/><text font-family="Aptos,Aptos_MSFontService,sans-serif" font-weight="400" font-size="83" transform="matrix(1 0 0 1 432.431 356)">Sequence Collection</text><rect x="536.5" y="694.5" width="779" height="99" stroke="#052909" stroke-width="6.875" stroke-miterlimit="8" fill="#005035"/><text fill="#FFFFFF" font-family="Aptos,Aptos_MSFontService,sans-serif" font-weight="400" font-size="83" transform="matrix(1 0 0 1 682.829 770)">Get Metadata</text><rect x="536.5" y="403.5" width="779" height="100" stroke="#052909" stroke-width="6.875" stroke-miterlimit="8" fill="#005035"/><text fill="#FFFFFF" font-family="Aptos,Aptos_MSFontService,sans-serif" font-weight="400" font-size="83" transform="matrix(1 0 0 1 716.184 479)">Run </text><text fill="#FFFFFF" font-family="Aptos,Aptos_MSFontService,sans-serif" font-style="italic" font-weight="400" font-size="83" transform="matrix(1 0 0 1 873.828 479)">CD</text><text fill="#FFFFFF" font-family="Aptos,Aptos_MSFontService,sans-serif" font-style="italic" font-weight="400" font-size="83" transform="matrix(1 0 0 1 987.839 479)">-</text><text fill="#FFFFFF" font-family="Aptos,Aptos_MSFontService,sans-serif" font-style="italic" font-weight="400" font-size="83" transform="matrix(1 0 0 1 1015.91 479)">HIT</text><rect x="536.5" y="548.5" width="779" height="100" stroke="#052909" stroke-width="6.875" stroke-miterlimit="8" fill="#005035"/><text fill="#FFFFFF" font-family="Aptos,Aptos_MSFontService,sans-serif" font-weight="400" font-size="83" transform="matrix(1 0 0 1 627.967 625)">Filter Sequences</text><rect x="536.5" y="839.5" width="779" height="100" stroke="#052909" stroke-width="6.875" stroke-miterlimit="8" fill="#005035"/><text fill="#FFFFFF" font-family="Aptos,Aptos_MSFontService,sans-serif" font-weight="400" font-size="83" transform="matrix(1 0 0 1 641.602 915)">Trim Sequences</text><path d="M390.5 1237.36C390.5 1230.81 395.81 1225.5 402.36 1225.5L1449.64 1225.5C1456.19 1225.5 1461.5 1230.81 1461.5 1237.36L1461.5 1542.64C1461.5 1549.19 1456.19 1554.5 1449.64 1554.5L402.36 1554.5C395.81 1554.5 390.5 1549.19 390.5 1542.64Z" stroke="#000000" stroke-width="6.875" stroke-miterlimit="8" stroke-dasharray="27.5 20.625" fill="none" fill-rule="evenodd"/><text font-family="Aptos,Aptos_MSFontService,sans-serif" font-weight="400" font-size="83" transform="matrix(1 0 0 1 426.745 1321)">Structure Generation</text><rect x="534.5" y="1389.5" width="779" height="100" stroke="#052909" stroke-width="6.875" stroke-miterlimit="8" fill="#005035"/><text fill="#FFFFFF" font-family="Aptos,Aptos_MSFontService,sans-serif" font-weight="400" font-size="83" transform="matrix(1 0 0 1 659.133 1466)">Run </text><text fill="#FFFFFF" font-family="Aptos,Aptos_MSFontService,sans-serif" font-style="italic" font-weight="400" font-size="83" transform="matrix(1 0 0 1 816.777 1466)">ColabFold</text><path d="M1669.5 283.872C1669.5 268.202 1682.2 255.5 1697.87 255.5L2711.13 255.5C2726.8 255.5 2739.5 268.202 2739.5 283.872L2739.5 1014.13C2739.5 1029.8 2726.8 1042.5 2711.13 1042.5L1697.87 1042.5C1682.2 1042.5 1669.5 1029.8 1669.5 1014.13Z" stroke="#000000" stroke-width="6.875" stroke-miterlimit="8" stroke-dasharray="27.5 20.625" fill="none" fill-rule="evenodd"/><text font-family="Aptos,Aptos_MSFontService,sans-serif" font-weight="400" font-size="83" transform="matrix(1 0 0 1 1709.84 356)">Structure Preparation</text><text font-family="Aptos,Aptos_MSFontService,sans-serif" font-weight="400" font-size="64" transform="matrix(1 0 0 1 1709.84 438)">(Antigens)</text><path d="M938.395 1125.65 937.631 1176.95 917.008 1176.65 917.772 1125.35ZM958.936 1168.81 923.5 1228.22 897.231 1164.23Z" fill="#005035"/><rect x="1815.5" y="518.5" width="778" height="199" stroke="#052909" stroke-width="6.875" stroke-miterlimit="8" fill="#005035"/><text fill="#FFFFFF" font-family="Aptos,Aptos_MSFontService,sans-serif" font-weight="400" font-size="83" transform="matrix(1 0 0 1 2003.66 594)">Renumber/</text><text fill="#FFFFFF" font-family="Aptos,Aptos_MSFontService,sans-serif" font-weight="400" font-size="83" transform="matrix(1 0 0 1 1952.95 693)">Rechain PDBs</text><rect x="1815.5" y="778.5" width="778" height="198" stroke="#052909" stroke-width="6.875" stroke-miterlimit="8" fill="#005035"/><text fill="#FFFFFF" font-family="Aptos,Aptos_MSFontService,sans-serif" font-weight="400" font-size="83" transform="matrix(1 0 0 1 1967.92 854)">Find Random </text><text fill="#FFFFFF" font-family="Aptos,Aptos_MSFontService,sans-serif" font-weight="400" font-size="83" transform="matrix(1 0 0 1 1894.11 953)">Surface Residues</text><path d="M1669.5 1193.17C1669.5 1176.78 1682.78 1163.5 1699.17 1163.5L2709.83 1163.5C2726.22 1163.5 2739.5 1176.78 2739.5 1193.17L2739.5 1956.83C2739.5 1973.22 2726.22 1986.5 2709.83 1986.5L1699.17 1986.5C1682.78 1986.5 1669.5 1973.22 1669.5 1956.83Z" stroke="#000000" stroke-width="6.875" stroke-miterlimit="8" stroke-dasharray="27.5 20.625" fill="none" fill-rule="evenodd"/><text font-family="Aptos,Aptos_MSFontService,sans-serif" font-weight="400" font-size="83" transform="matrix(1 0 0 1 1710.21 1264)">Structure Preparation</text><text font-family="Aptos,Aptos_MSFontService,sans-serif" font-weight="400" font-size="64" transform="matrix(1 0 0 1 1710.21 1346)">(Antibodies)</text><rect x="1817.5" y="1455.5" width="779" height="198" stroke="#042433" stroke-width="6.875" stroke-miterlimit="8" fill="#007377"/><text fill="#FFFFFF" font-family="Aptos,Aptos_MSFontService,sans-serif" font-weight="400" font-size="83" transform="matrix(1 0 0 1 2005.95 1531)">Renumber/</text><text fill="#FFFFFF" font-family="Aptos,Aptos_MSFontService,sans-serif" font-weight="400" font-size="83" transform="matrix(1 0 0 1 1955.24 1630)">Rechain PDBs</text><rect x="1817.5" y="1703.5" width="779" height="198" stroke="#042433" stroke-width="6.875" stroke-miterlimit="8" fill="#007377"/><text fill="#FFFFFF" font-family="Aptos,Aptos_MSFontService,sans-serif" font-weight="400" font-size="83" transform="matrix(1 0 0 1 1941.72 1779)">Find CDR Loop </text><text fill="#FFFFFF" font-family="Aptos,Aptos_MSFontService,sans-serif" font-weight="400" font-size="83" transform="matrix(1 0 0 1 2041.75 1878)">Residues</text><path d="M0 10.3125-61.875 10.3125-61.875-10.3125 0-10.3125ZM-92.8125 0-92.8125 61.875-72.1875 61.875-72.1875 0ZM-72.1875 82.5-72.1875 144.375-92.8125 144.375-92.8125 82.5ZM-72.1875 165-72.1875 226.875-92.8125 226.875-92.8125 165ZM-72.1875 247.5-72.1875 309.375-92.8125 309.375-92.8125 247.5ZM-72.1875 330-72.1875 391.875-92.8125 391.875-92.8125 330ZM-72.1875 412.5-72.1875 474.375-92.8125 474.375-92.8125 412.5ZM-72.1875 495-72.1875 556.875-92.8125 556.875-92.8125 495ZM-72.1875 577.5-72.1875 639.375-92.8125 639.375-92.8125 577.5ZM-72.1875 660-72.1875 721.875-92.8125 721.875-92.8125 660ZM-72.1875 742.5-72.1875 804.375-92.8125 804.375-92.8125 742.5ZM-72.1875 825-72.1875 886.875-92.8125 886.875-92.8125 825ZM-72.1875 907.5-72.1875 969.375-92.8125 969.375-92.8125 907.5ZM-72.1875 990-72.1875 1051.88-92.8125 1051.88-92.8125 990ZM-72.1875 1072.5-72.1875 1102.5-82.5 1092.18-50.6206 1092.18-50.6206 1112.81-92.8125 1112.81-92.8125 1072.5ZM-54.1017 1071.56 7.77326 1102.5-54.1017 1133.43Z" fill="#005035" transform="matrix(1 -1.22465e-16 -1.22465e-16 -1 382.5 1792)"/><path d="M0-10.3125 61.875-10.3125 61.875 10.3125 0 10.3125ZM82.5-10.3125 114.292-10.3125 114.292 40.395 93.6674 40.395 93.6674 0 103.98 10.3125 82.5 10.3125ZM114.292 61.02 114.292 122.895 93.6674 122.895 93.6674 61.02ZM114.292 143.52 114.292 205.395 93.6674 205.395 93.6674 143.52ZM113.411 206.276 156.397 206.276 156.397 226.901 113.411 226.901ZM146.085 185.651 207.96 216.589 146.085 247.526Z" fill="#007377" transform="matrix(1 0 0 -1 1461.5 1791.09)"/><path d="M2947.5 283.835C2947.5 268.186 2960.19 255.5 2975.84 255.5L3990.17 255.5C4005.81 255.5 4018.5 268.186 4018.5 283.835L4018.5 1013.16C4018.5 1028.81 4005.81 1041.5 3990.17 1041.5L2975.84 1041.5C2960.19 1041.5 2947.5 1028.81 2947.5 1013.16Z" stroke="#000000" stroke-width="6.875" stroke-miterlimit="8" stroke-dasharray="27.5 20.625" fill="none" fill-rule="evenodd"/><text font-family="Aptos,Aptos_MSFontService,sans-serif" font-weight="400" font-size="83" transform="matrix(1 0 0 1 2988.08 356)">Experiment Generation</text><text font-family="Aptos,Aptos_MSFontService,sans-serif" font-style="italic" font-weight="400" font-size="64" transform="matrix(1 0 0 1 2988.08 438)">(n=1,804)</text><rect x="3090.5" y="518.5" width="779" height="199" stroke="#410C3B" stroke-width="6.875" stroke-miterlimit="8" fill="#A49665"/><text fill="#FFFFFF" font-family="Aptos,Aptos_MSFontService,sans-serif" font-weight="400" font-size="83" transform="matrix(1 0 0 1 3173.18 594)">Make Experiment </text><text fill="#FFFFFF" font-family="Aptos,Aptos_MSFontService,sans-serif" font-weight="400" font-size="83" transform="matrix(1 0 0 1 3179.18 693)">Folders and Files</text><rect x="3095.5" y="776.5" width="779" height="199" stroke="#410C3B" stroke-width="6.875" stroke-miterlimit="8" fill="#A49665"/><text fill="#FFFFFF" font-family="Aptos,Aptos_MSFontService,sans-serif" font-weight="400" font-size="83" transform="matrix(1 0 0 1 3319.8 852)">Generate </text><text fill="#FFFFFF" font-family="Aptos,Aptos_MSFontService,sans-serif" font-weight="400" font-size="83" transform="matrix(1 0 0 1 3157.3 951)">Experiment Config</text><path d="M0-10.3125 114.08-10.3125 114.08 0.655381 103.767-9.65712 155.972-9.65712 155.972 10.9679 93.4549 10.9679 93.4549 0 103.767 10.3125 0 10.3125ZM145.66-30.2821 207.535 0.655381 145.66 31.5929Z" fill="url(#fill0)" transform="matrix(1 0 0 -1 2739.5 649.156)"/><path d="M2947.5 1474.64C2947.5 1464.07 2956.07 1455.5 2966.64 1455.5L3999.36 1455.5C4009.93 1455.5 4018.5 1464.07 4018.5 1474.64L4018.5 1967.36C4018.5 1977.93 4009.93 1986.5 3999.36 1986.5L2966.64 1986.5C2956.07 1986.5 2947.5 1977.93 2947.5 1967.36Z" stroke="#000000" stroke-width="6.875" stroke-miterlimit="8" stroke-dasharray="27.5 20.625" fill="none" fill-rule="evenodd"/><text font-family="Aptos,Aptos_MSFontService,sans-serif" font-weight="400" font-size="83" transform="matrix(1 0 0 1 2985.39 1553)">Metrics Collection</text><rect x="3093.5" y="1574.5" width="778" height="326" stroke="#410C3B" stroke-width="6.875" stroke-miterlimit="8" fill="#A49665"/><text fill="#FFFFFF" font-family="Aptos,Aptos_MSFontService,sans-serif" font-weight="400" font-size="83" transform="matrix(1 0 0 1 3264.37 1664)">Collect Best </text><text fill="#FFFFFF" font-family="Aptos,Aptos_MSFontService,sans-serif" font-weight="400" font-size="83" transform="matrix(1 0 0 1 3133.68 1763)">Cluster Metrics and </text><text fill="#FFFFFF" font-family="Aptos,Aptos_MSFontService,sans-serif" font-weight="400" font-size="83" transform="matrix(1 0 0 1 3230.32 1862)">PDB Structure</text><path d="M3513.44 1041.45 3482.5 1103.32 3451.56 1041.45Z" fill="#A49665"/><path d="M0-10.3125 114.08-10.3125 114.08 741.197 103.768 730.885 155.972 730.885 155.972 751.51 93.4553 751.51 93.4553 0 103.768 10.3125 0 10.3125ZM145.66 710.26 207.535 741.197 145.66 772.135Z" fill="#005035" transform="matrix(1 0 0 -1 1461.5 1389.7)"/><path d="M2947.5 1112.99C2947.5 1107.2 2952.2 1102.5 2957.99 1102.5L4007.01 1102.5C4012.8 1102.5 4017.5 1107.2 4017.5 1112.99L4017.5 1383.01C4017.5 1388.8 4012.8 1393.5 4007.01 1393.5L2957.99 1393.5C2952.2 1393.5 2947.5 1388.8 2947.5 1383.01Z" stroke="#000000" stroke-width="6.875" stroke-miterlimit="8" stroke-dasharray="27.5 20.625" fill="none" fill-rule="evenodd"/><text font-family="Aptos,Aptos_MSFontService,sans-serif" font-weight="400" font-size="83" transform="matrix(1 0 0 1 2982.85 1198)">Experiment Submission</text><path d="M-0.0528707-30.9375 61.8212 0.00180446-0.0546752 30.9375Z" fill="#A49665" transform="matrix(1.83697e-16 1 1 -1.83697e-16 3482.5 1393.5)"/><rect x="3095.5" y="1238.5" width="779" height="99" stroke="#410C3B" stroke-width="6.875" stroke-miterlimit="8" fill="#A49665"/><text fill="#FFFFFF" font-family="Aptos,Aptos_MSFontService,sans-serif" font-weight="400" font-size="83" transform="matrix(1 0 0 1 3191.34 1314)">Run </text><text fill="#FFFFFF" font-family="Aptos,Aptos_MSFontService,sans-serif" font-style="italic" font-weight="400" font-size="83" transform="matrix(1 0 0 1 3348.98 1314)">HADDOCK3</text><text font-family="Aptos,Aptos_MSFontService,sans-serif" font-weight="400" font-size="50" transform="matrix(1 0 0 1 509.124 2041)">Influenza A</text><text font-family="Aptos,Aptos_MSFontService,sans-serif" font-weight="400" font-size="50" transform="matrix(1 0 0 1 457.263 2101)">HA1 Sequences</text><text font-family="Aptos,Aptos_MSFontService,sans-serif" font-style="italic" font-weight="400" font-size="50" transform="matrix(1 0 0 1 547.211 2162)">(n=164)</text><text font-family="Aptos,Aptos_MSFontService,sans-serif" font-weight="400" font-size="50" transform="matrix(1 0 0 1 1036.32 2041)">Anti</text><text font-family="Aptos,Aptos_MSFontService,sans-serif" font-weight="400" font-size="50" transform="matrix(1 0 0 1 1122.26 2041)">-</text><text font-family="Aptos,Aptos_MSFontService,sans-serif" font-weight="400" font-size="50" transform="matrix(1 0 0 1 1139.45 2041)">HA1 Fab/</text><text font-family="Aptos,Aptos_MSFontService,sans-serif" font-weight="400" font-size="50" transform="matrix(1 0 0 1 1340.54 2041)">Fv</text><text font-family="Aptos,Aptos_MSFontService,sans-serif" font-weight="400" font-size="50" transform="matrix(1 0 0 1 1099.34 2101)">Structures</text><text font-family="Aptos,Aptos_MSFontService,sans-serif" font-style="italic" font-weight="400" font-size="50" transform="matrix(1 0 0 1 1143.75 2162)">(n=11)</text><path d="M0-10.3125 114.081-10.3125 114.081 926.801 103.769 916.488 155.974 916.488 155.974 937.113 93.4561 937.113 93.4561 0 103.769 10.3125 0 10.3125ZM145.661 895.863 207.536 926.801 145.661 957.738Z" fill="url(#fill1)" transform="matrix(1 0 0 -1 2739.5 1575.3)"/><rect x="536.5" y="983.5" width="779" height="100" stroke="#052909" stroke-width="6.875" stroke-miterlimit="8" fill="#005035"/><text fill="#FFFFFF" font-family="Aptos,Aptos_MSFontService,sans-serif" font-weight="400" font-size="83" transform="matrix(1 0 0 1 731.252 1059)">Build Trees</text></g></svg>